<svg width="40" height="40" viewBox="0 0 40 40" fill="none" xmlns="http://www.w3.org/2000/svg">
<path fill-rule="evenodd" clip-rule="evenodd" d="M33.3334 1.66669C36.0949 1.66669 38.3334 3.90527 38.3334 6.66669V33.3334C38.3334 36.0948 36.0949 38.3334 33.3334 38.3334H6.66675C3.90533 38.3334 1.66675 36.0948 1.66675 33.3334V6.66669C1.66675 3.90527 3.90533 1.66669 6.66675 1.66669H33.3334ZM33.3334 5.00002C34.2539 5.00002 35.0001 5.74622 35.0001 6.66669V33.3334C35.0001 34.2538 34.2539 35 33.3334 35H25.0001V23.3332H28.4604C29.1777 23.3332 29.8146 22.8742 30.0416 22.1935L30.7799 19.9785C31.0497 19.169 30.4472 18.3332 29.5941 18.3332H25.0001V14.9999C25.0001 14.1666 25.8334 13.3332 26.6667 13.3332H30.0001C30.9206 13.3332 31.6667 12.587 31.6667 11.6666V10.5232C31.6667 9.98487 31.3229 9.50219 30.8022 9.3648C28.6176 8.78827 26.6667 8.78827 26.6667 8.78827C22.5001 8.78827 20.0001 11.6666 20.0001 14.1666V18.3332H16.6667C15.7463 18.3332 15.0001 19.0794 15.0001 19.9999V21.6665C15.0001 22.587 15.7463 23.3332 16.6667 23.3332H20.0001V35H6.66675C5.74628 35 5.00008 34.2538 5.00008 33.3334V6.66669C5.00008 5.74622 5.74628 5.00002 6.66675 5.00002H33.3334Z" fill="#172DF7"/>
</svg>
