<svg width="462" height="586" viewBox="0 0 462 586" fill="none" xmlns="http://www.w3.org/2000/svg">
<g filter="url(#filter0_i_2_24)">
<path d="M217.047 83.8008V87H207.025V83.8008H217.047ZM208.352 67.0938V87H204.25V67.0938H208.352ZM218.523 79.7539V79.4668C218.523 78.3822 218.678 77.3841 218.988 76.4727C219.298 75.5521 219.749 74.7546 220.342 74.0801C220.934 73.4056 221.663 72.8815 222.529 72.5078C223.395 72.125 224.389 71.9336 225.51 71.9336C226.631 71.9336 227.629 72.125 228.504 72.5078C229.379 72.8815 230.113 73.4056 230.705 74.0801C231.307 74.7546 231.762 75.5521 232.072 76.4727C232.382 77.3841 232.537 78.3822 232.537 79.4668V79.7539C232.537 80.8294 232.382 81.8275 232.072 82.748C231.762 83.6595 231.307 84.457 230.705 85.1406C230.113 85.8151 229.383 86.3392 228.518 86.7129C227.652 87.0866 226.658 87.2734 225.537 87.2734C224.416 87.2734 223.418 87.0866 222.543 86.7129C221.677 86.3392 220.943 85.8151 220.342 85.1406C219.749 84.457 219.298 83.6595 218.988 82.748C218.678 81.8275 218.523 80.8294 218.523 79.7539ZM222.461 79.4668V79.7539C222.461 80.3737 222.516 80.9525 222.625 81.4902C222.734 82.028 222.908 82.502 223.145 82.9121C223.391 83.3132 223.71 83.6276 224.102 83.8555C224.493 84.0833 224.972 84.1973 225.537 84.1973C226.084 84.1973 226.553 84.0833 226.945 83.8555C227.337 83.6276 227.652 83.3132 227.889 82.9121C228.126 82.502 228.299 82.028 228.408 81.4902C228.527 80.9525 228.586 80.3737 228.586 79.7539V79.4668C228.586 78.8652 228.527 78.3001 228.408 77.7715C228.299 77.2337 228.121 76.7598 227.875 76.3496C227.638 75.9303 227.324 75.6022 226.932 75.3652C226.54 75.1283 226.066 75.0098 225.51 75.0098C224.954 75.0098 224.48 75.1283 224.088 75.3652C223.705 75.6022 223.391 75.9303 223.145 76.3496C222.908 76.7598 222.734 77.2337 222.625 77.7715C222.516 78.3001 222.461 78.8652 222.461 79.4668ZM244.322 72.207H247.891V86.5078C247.891 87.8568 247.59 89.0007 246.988 89.9395C246.396 90.8874 245.566 91.6029 244.5 92.0859C243.434 92.5781 242.194 92.8242 240.781 92.8242C240.161 92.8242 239.505 92.7422 238.812 92.5781C238.129 92.4141 237.473 92.1589 236.844 91.8125C236.224 91.4661 235.704 91.0286 235.285 90.5L237.021 88.1758C237.477 88.7044 238.006 89.1146 238.607 89.4062C239.209 89.707 239.874 89.8574 240.604 89.8574C241.314 89.8574 241.916 89.7253 242.408 89.4609C242.9 89.2057 243.279 88.8275 243.543 88.3262C243.807 87.834 243.939 87.237 243.939 86.5352V75.625L244.322 72.207ZM234.369 79.7812V79.4941C234.369 78.3639 234.506 77.3385 234.779 76.418C235.062 75.4883 235.458 74.6908 235.969 74.0254C236.488 73.36 237.117 72.8451 237.855 72.4805C238.594 72.1159 239.428 71.9336 240.357 71.9336C241.342 71.9336 242.167 72.1159 242.832 72.4805C243.497 72.8451 244.044 73.3646 244.473 74.0391C244.901 74.7044 245.234 75.4928 245.471 76.4043C245.717 77.3066 245.908 78.2956 246.045 79.3711V80C245.908 81.0299 245.703 81.987 245.43 82.8711C245.156 83.7552 244.796 84.5299 244.35 85.1953C243.903 85.8516 243.347 86.362 242.682 86.7266C242.025 87.0911 241.242 87.2734 240.33 87.2734C239.419 87.2734 238.594 87.0866 237.855 86.7129C237.126 86.3392 236.502 85.8151 235.982 85.1406C235.463 84.4661 235.062 83.6732 234.779 82.7617C234.506 81.8503 234.369 80.8568 234.369 79.7812ZM238.307 79.4941V79.7812C238.307 80.3919 238.366 80.9616 238.484 81.4902C238.603 82.0189 238.785 82.4883 239.031 82.8984C239.286 83.2995 239.601 83.6139 239.975 83.8418C240.357 84.0605 240.809 84.1699 241.328 84.1699C242.048 84.1699 242.636 84.0195 243.092 83.7188C243.548 83.4089 243.889 82.985 244.117 82.4473C244.345 81.9095 244.477 81.2897 244.514 80.5879V78.7969C244.495 78.2227 244.418 77.7077 244.281 77.252C244.145 76.7871 243.953 76.3906 243.707 76.0625C243.461 75.7344 243.142 75.4792 242.75 75.2969C242.358 75.1146 241.893 75.0234 241.355 75.0234C240.836 75.0234 240.385 75.1419 240.002 75.3789C239.628 75.6068 239.314 75.9212 239.059 76.3223C238.812 76.7233 238.626 77.1973 238.498 77.7441C238.37 78.2819 238.307 78.8652 238.307 79.4941ZM255.109 72.207V87H251.158V72.207H255.109ZM250.912 68.3516C250.912 67.7773 251.113 67.3034 251.514 66.9297C251.915 66.556 252.452 66.3691 253.127 66.3691C253.792 66.3691 254.326 66.556 254.727 66.9297C255.137 67.3034 255.342 67.7773 255.342 68.3516C255.342 68.9258 255.137 69.3997 254.727 69.7734C254.326 70.1471 253.792 70.334 253.127 70.334C252.452 70.334 251.915 70.1471 251.514 69.7734C251.113 69.3997 250.912 68.9258 250.912 68.3516ZM262.219 75.3652V87H258.281V72.207H261.973L262.219 75.3652ZM261.645 79.084H260.578C260.578 77.9902 260.719 77.0059 261.002 76.1309C261.285 75.2467 261.681 74.4948 262.191 73.875C262.702 73.2461 263.308 72.7676 264.01 72.4395C264.721 72.1022 265.514 71.9336 266.389 71.9336C267.081 71.9336 267.715 72.0339 268.289 72.2344C268.863 72.4349 269.355 72.7539 269.766 73.1914C270.185 73.6289 270.504 74.2077 270.723 74.9277C270.951 75.6478 271.064 76.5273 271.064 77.5664V87H267.1V77.5527C267.1 76.8965 267.008 76.3861 266.826 76.0215C266.644 75.6569 266.375 75.4017 266.02 75.2559C265.673 75.1009 265.245 75.0234 264.734 75.0234C264.206 75.0234 263.745 75.1283 263.354 75.3379C262.971 75.5475 262.652 75.8392 262.396 76.2129C262.15 76.5775 261.964 77.0059 261.836 77.498C261.708 77.9902 261.645 78.5189 261.645 79.084Z" fill="#06F7A0"/>
<path d="M62.418 202.938L65.1953 211.469L68.1953 202.938H70.8906V220H68.7812V213.191L68.957 206.066L65.8047 215.254H64.5625L61.668 206.312L61.8438 213.191V220H59.7344V202.938H62.418ZM82.7852 220C82.6992 219.836 82.6289 219.633 82.5742 219.391C82.5273 219.141 82.4922 218.883 82.4688 218.617C82.25 218.836 82.0039 219.043 81.7305 219.238C81.4648 219.434 81.1719 219.605 80.8516 219.754C80.5234 219.902 80.1758 220.02 79.8086 220.105C79.4414 220.191 79.0508 220.234 78.6367 220.234C77.9648 220.234 77.3555 220.137 76.8086 219.941C76.2695 219.746 75.8125 219.48 75.4375 219.145C75.0547 218.816 74.7578 218.426 74.5469 217.973C74.3438 217.512 74.2422 217.016 74.2422 216.484C74.2422 215.789 74.3789 215.18 74.6523 214.656C74.9336 214.133 75.3281 213.695 75.8359 213.344C76.3438 213 76.9531 212.742 77.6641 212.57C78.3828 212.398 79.1836 212.312 80.0664 212.312H82.4336V211.316C82.4336 210.934 82.3633 210.59 82.2227 210.285C82.082 209.98 81.8828 209.719 81.625 209.5C81.3672 209.289 81.0508 209.125 80.6758 209.008C80.3086 208.891 79.8945 208.832 79.4336 208.832C79.0039 208.832 78.6172 208.887 78.2734 208.996C77.9375 209.105 77.6523 209.25 77.418 209.43C77.1836 209.609 77 209.824 76.8672 210.074C76.7422 210.316 76.6797 210.57 76.6797 210.836H74.5C74.5078 210.375 74.625 209.922 74.8516 209.477C75.0859 209.031 75.4219 208.629 75.8594 208.27C76.2891 207.918 76.8125 207.633 77.4297 207.414C78.0547 207.195 78.7617 207.086 79.5508 207.086C80.2695 207.086 80.9375 207.176 81.5547 207.355C82.1719 207.527 82.707 207.789 83.1602 208.141C83.6055 208.5 83.957 208.945 84.2148 209.477C84.4727 210.008 84.6016 210.629 84.6016 211.34V217.234C84.6016 217.656 84.6406 218.105 84.7188 218.582C84.7969 219.051 84.9062 219.461 85.0469 219.812V220H82.7852ZM78.9531 218.348C79.375 218.348 79.7695 218.293 80.1367 218.184C80.5039 218.074 80.8398 217.93 81.1445 217.75C81.4414 217.57 81.6992 217.367 81.918 217.141C82.1367 216.906 82.3086 216.664 82.4336 216.414V213.848H80.418C79.668 213.848 79.0117 213.914 78.4492 214.047C77.8945 214.172 77.4531 214.367 77.125 214.633C76.8906 214.82 76.7109 215.043 76.5859 215.301C76.4688 215.559 76.4102 215.852 76.4102 216.18C76.4102 216.492 76.4609 216.781 76.5625 217.047C76.6719 217.312 76.832 217.539 77.043 217.727C77.2539 217.922 77.5195 218.074 77.8398 218.184C78.1602 218.293 78.5312 218.348 78.9531 218.348ZM97.293 216.637C97.293 216.379 97.2422 216.148 97.1406 215.945C97.0391 215.734 96.8672 215.543 96.625 215.371C96.3828 215.199 96.0625 215.043 95.6641 214.902C95.2656 214.754 94.7695 214.621 94.1758 214.504C93.4492 214.355 92.7852 214.176 92.1836 213.965C91.5898 213.754 91.082 213.5 90.6602 213.203C90.2305 212.914 89.8984 212.574 89.6641 212.184C89.4297 211.785 89.3125 211.324 89.3125 210.801C89.3125 210.285 89.4336 209.805 89.6758 209.359C89.918 208.906 90.2578 208.512 90.6953 208.176C91.1328 207.84 91.6523 207.574 92.2539 207.379C92.8633 207.184 93.5312 207.086 94.2578 207.086C95.0391 207.086 95.7422 207.188 96.3672 207.391C96.9922 207.594 97.5234 207.875 97.9609 208.234C98.3984 208.594 98.7344 209.016 98.9688 209.5C99.2109 209.977 99.332 210.492 99.332 211.047H97.1641C97.1641 210.773 97.0938 210.508 96.9531 210.25C96.8125 209.984 96.6172 209.75 96.3672 209.547C96.1172 209.344 95.8125 209.18 95.4531 209.055C95.1016 208.93 94.7031 208.867 94.2578 208.867C93.7969 208.867 93.3906 208.918 93.0391 209.02C92.6953 209.121 92.4102 209.258 92.1836 209.43C91.9492 209.602 91.7734 209.801 91.6562 210.027C91.5391 210.254 91.4805 210.488 91.4805 210.73C91.4805 210.98 91.5273 211.203 91.6211 211.398C91.7148 211.594 91.8789 211.77 92.1133 211.926C92.3398 212.082 92.6445 212.223 93.0273 212.348C93.418 212.473 93.9102 212.594 94.5039 212.711C95.2852 212.875 95.9844 213.066 96.6016 213.285C97.2188 213.496 97.7383 213.75 98.1602 214.047C98.582 214.352 98.9023 214.703 99.1211 215.102C99.3477 215.5 99.4609 215.961 99.4609 216.484C99.4609 217.047 99.332 217.559 99.0742 218.02C98.8242 218.48 98.4727 218.875 98.0195 219.203C97.5664 219.531 97.0234 219.785 96.3906 219.965C95.7578 220.145 95.0664 220.234 94.3164 220.234C93.457 220.234 92.6914 220.121 92.0195 219.895C91.3477 219.66 90.7812 219.352 90.3203 218.969C89.8516 218.594 89.4922 218.156 89.2422 217.656C89 217.156 88.8789 216.637 88.8789 216.098H91.0469C91.0781 216.543 91.1953 216.918 91.3984 217.223C91.6094 217.527 91.8711 217.773 92.1836 217.961C92.4883 218.148 92.8281 218.281 93.2031 218.359C93.5781 218.438 93.9492 218.477 94.3164 218.477C94.8945 218.477 95.3984 218.41 95.8281 218.277C96.2578 218.137 96.5938 217.945 96.8359 217.703C96.9844 217.555 97.0977 217.391 97.1758 217.211C97.2539 217.031 97.293 216.84 97.293 216.637ZM111.637 220L111.508 218.254C111.086 218.879 110.559 219.367 109.926 219.719C109.293 220.062 108.562 220.234 107.734 220.234C107.07 220.234 106.469 220.133 105.93 219.93C105.391 219.719 104.93 219.395 104.547 218.957C104.164 218.52 103.867 217.965 103.656 217.293C103.453 216.613 103.352 215.801 103.352 214.855V207.32H105.52V214.879C105.52 215.566 105.574 216.137 105.684 216.59C105.793 217.043 105.957 217.402 106.176 217.668C106.395 217.941 106.66 218.133 106.973 218.242C107.293 218.352 107.66 218.406 108.074 218.406C108.559 218.406 108.992 218.352 109.375 218.242C109.758 218.125 110.09 217.965 110.371 217.762C110.605 217.598 110.809 217.402 110.98 217.176C111.16 216.941 111.309 216.688 111.426 216.414V207.32H113.605V220H111.637ZM121.492 214.082L119.898 215.617V220H117.719V202H119.898V213.016L121.316 211.492L125.477 207.32H128.113L122.98 212.605L128.898 220H126.145L121.492 214.082ZM135.906 214.082L134.312 215.617V220H132.133V202H134.312V213.016L135.73 211.492L139.891 207.32H142.527L137.395 212.605L143.312 220H140.559L135.906 214.082ZM154.855 220C154.77 219.836 154.699 219.633 154.645 219.391C154.598 219.141 154.562 218.883 154.539 218.617C154.32 218.836 154.074 219.043 153.801 219.238C153.535 219.434 153.242 219.605 152.922 219.754C152.594 219.902 152.246 220.02 151.879 220.105C151.512 220.191 151.121 220.234 150.707 220.234C150.035 220.234 149.426 220.137 148.879 219.941C148.34 219.746 147.883 219.48 147.508 219.145C147.125 218.816 146.828 218.426 146.617 217.973C146.414 217.512 146.312 217.016 146.312 216.484C146.312 215.789 146.449 215.18 146.723 214.656C147.004 214.133 147.398 213.695 147.906 213.344C148.414 213 149.023 212.742 149.734 212.57C150.453 212.398 151.254 212.312 152.137 212.312H154.504V211.316C154.504 210.934 154.434 210.59 154.293 210.285C154.152 209.98 153.953 209.719 153.695 209.5C153.438 209.289 153.121 209.125 152.746 209.008C152.379 208.891 151.965 208.832 151.504 208.832C151.074 208.832 150.688 208.887 150.344 208.996C150.008 209.105 149.723 209.25 149.488 209.43C149.254 209.609 149.07 209.824 148.938 210.074C148.812 210.316 148.75 210.57 148.75 210.836H146.57C146.578 210.375 146.695 209.922 146.922 209.477C147.156 209.031 147.492 208.629 147.93 208.27C148.359 207.918 148.883 207.633 149.5 207.414C150.125 207.195 150.832 207.086 151.621 207.086C152.34 207.086 153.008 207.176 153.625 207.355C154.242 207.527 154.777 207.789 155.23 208.141C155.676 208.5 156.027 208.945 156.285 209.477C156.543 210.008 156.672 210.629 156.672 211.34V217.234C156.672 217.656 156.711 218.105 156.789 218.582C156.867 219.051 156.977 219.461 157.117 219.812V220H154.855ZM151.023 218.348C151.445 218.348 151.84 218.293 152.207 218.184C152.574 218.074 152.91 217.93 153.215 217.75C153.512 217.57 153.77 217.367 153.988 217.141C154.207 216.906 154.379 216.664 154.504 216.414V213.848H152.488C151.738 213.848 151.082 213.914 150.52 214.047C149.965 214.172 149.523 214.367 149.195 214.633C148.961 214.82 148.781 215.043 148.656 215.301C148.539 215.559 148.48 215.852 148.48 216.18C148.48 216.492 148.531 216.781 148.633 217.047C148.742 217.312 148.902 217.539 149.113 217.727C149.324 217.922 149.59 218.074 149.91 218.184C150.23 218.293 150.602 218.348 151.023 218.348ZM160.938 220V207.32H162.883L163.035 209.195C163.223 208.93 163.426 208.688 163.645 208.469C163.871 208.242 164.109 208.047 164.359 207.883C164.734 207.633 165.141 207.441 165.578 207.309C166.023 207.168 166.492 207.094 166.984 207.086C167.648 207.086 168.25 207.18 168.789 207.367C169.336 207.555 169.801 207.848 170.184 208.246C170.566 208.645 170.859 209.152 171.062 209.77C171.273 210.379 171.379 211.105 171.379 211.949V220H169.211V211.996C169.211 211.434 169.148 210.957 169.023 210.566C168.898 210.176 168.715 209.859 168.473 209.617C168.223 209.375 167.918 209.199 167.559 209.09C167.207 208.98 166.801 208.926 166.34 208.926C165.941 208.926 165.57 208.984 165.227 209.102C164.883 209.211 164.566 209.363 164.277 209.559C164.043 209.73 163.824 209.93 163.621 210.156C163.426 210.383 163.254 210.633 163.105 210.906V220H160.938ZM199.152 212.113H192.027V218.16H200.336V220H189.859V202.938H200.23V204.789H192.027V210.273H199.152V212.113ZM205.176 207.32L205.234 208.516C205.492 208.07 205.828 207.723 206.242 207.473C206.664 207.223 207.172 207.094 207.766 207.086C208.102 207.086 208.402 207.125 208.668 207.203C208.941 207.273 209.18 207.379 209.383 207.52C209.531 207.629 209.664 207.762 209.781 207.918C209.906 208.074 210.012 208.25 210.098 208.445C210.207 208.266 210.336 208.098 210.484 207.941C210.633 207.785 210.793 207.648 210.965 207.531C211.184 207.398 211.426 207.293 211.691 207.215C211.965 207.137 212.262 207.094 212.582 207.086C213.02 207.086 213.414 207.152 213.766 207.285C214.117 207.41 214.414 207.598 214.656 207.848C214.922 208.129 215.125 208.496 215.266 208.949C215.406 209.395 215.477 209.922 215.477 210.531V220H213.414V210.508C213.414 210.242 213.383 210.008 213.32 209.805C213.258 209.602 213.168 209.434 213.051 209.301C212.926 209.176 212.77 209.082 212.582 209.02C212.402 208.957 212.191 208.926 211.949 208.926C211.691 208.926 211.469 208.961 211.281 209.031C211.094 209.102 210.938 209.195 210.812 209.312C210.688 209.438 210.59 209.582 210.52 209.746C210.449 209.902 210.402 210.078 210.379 210.273C210.379 210.312 210.379 210.352 210.379 210.391C210.379 210.422 210.379 210.461 210.379 210.508V220H208.316V210.496C208.316 210.23 208.285 209.996 208.223 209.793C208.168 209.59 208.078 209.422 207.953 209.289C207.836 209.164 207.688 209.074 207.508 209.02C207.336 208.957 207.133 208.926 206.898 208.926C206.641 208.926 206.414 208.957 206.219 209.02C206.031 209.074 205.871 209.156 205.738 209.266C205.637 209.352 205.547 209.449 205.469 209.559C205.398 209.668 205.34 209.785 205.293 209.91V220H203.23V207.32H205.176ZM226.926 220C226.84 219.836 226.77 219.633 226.715 219.391C226.668 219.141 226.633 218.883 226.609 218.617C226.391 218.836 226.145 219.043 225.871 219.238C225.605 219.434 225.312 219.605 224.992 219.754C224.664 219.902 224.316 220.02 223.949 220.105C223.582 220.191 223.191 220.234 222.777 220.234C222.105 220.234 221.496 220.137 220.949 219.941C220.41 219.746 219.953 219.48 219.578 219.145C219.195 218.816 218.898 218.426 218.688 217.973C218.484 217.512 218.383 217.016 218.383 216.484C218.383 215.789 218.52 215.18 218.793 214.656C219.074 214.133 219.469 213.695 219.977 213.344C220.484 213 221.094 212.742 221.805 212.57C222.523 212.398 223.324 212.312 224.207 212.312H226.574V211.316C226.574 210.934 226.504 210.59 226.363 210.285C226.223 209.98 226.023 209.719 225.766 209.5C225.508 209.289 225.191 209.125 224.816 209.008C224.449 208.891 224.035 208.832 223.574 208.832C223.145 208.832 222.758 208.887 222.414 208.996C222.078 209.105 221.793 209.25 221.559 209.43C221.324 209.609 221.141 209.824 221.008 210.074C220.883 210.316 220.82 210.57 220.82 210.836H218.641C218.648 210.375 218.766 209.922 218.992 209.477C219.227 209.031 219.562 208.629 220 208.27C220.43 207.918 220.953 207.633 221.57 207.414C222.195 207.195 222.902 207.086 223.691 207.086C224.41 207.086 225.078 207.176 225.695 207.355C226.312 207.527 226.848 207.789 227.301 208.141C227.746 208.5 228.098 208.945 228.355 209.477C228.613 210.008 228.742 210.629 228.742 211.34V217.234C228.742 217.656 228.781 218.105 228.859 218.582C228.938 219.051 229.047 219.461 229.188 219.812V220H226.926ZM223.094 218.348C223.516 218.348 223.91 218.293 224.277 218.184C224.645 218.074 224.98 217.93 225.285 217.75C225.582 217.57 225.84 217.367 226.059 217.141C226.277 216.906 226.449 216.664 226.574 216.414V213.848H224.559C223.809 213.848 223.152 213.914 222.59 214.047C222.035 214.172 221.594 214.367 221.266 214.633C221.031 214.82 220.852 215.043 220.727 215.301C220.609 215.559 220.551 215.852 220.551 216.18C220.551 216.492 220.602 216.781 220.703 217.047C220.812 217.312 220.973 217.539 221.184 217.727C221.395 217.922 221.66 218.074 221.98 218.184C222.301 218.293 222.672 218.348 223.094 218.348ZM233.348 207.32H239.828V218.125H243.965V220H233.348V218.125H237.66V209.207H233.348V207.32ZM237.379 203.992C237.379 203.805 237.406 203.629 237.461 203.465C237.523 203.301 237.617 203.16 237.742 203.043C237.844 202.941 237.973 202.863 238.129 202.809C238.293 202.746 238.477 202.715 238.68 202.715C238.883 202.715 239.062 202.746 239.219 202.809C239.375 202.863 239.504 202.941 239.605 203.043C239.73 203.152 239.824 203.289 239.887 203.453C239.949 203.617 239.98 203.797 239.98 203.992C239.98 204.344 239.871 204.637 239.652 204.871C239.434 205.105 239.109 205.223 238.68 205.223C238.242 205.223 237.914 205.105 237.695 204.871C237.484 204.637 237.379 204.344 237.379 203.992ZM247.762 202H254.242V218.125H258.379V220H247.762V218.125H252.074V203.887H247.762V202Z" fill="white"/>
<rect x="51.5" y="185.5" width="363" height="48" stroke="#06F749" stroke-opacity="0.98"/>
<rect x="48" y="407" width="148" height="56" rx="2" fill="#06F749" fill-opacity="0.98"/>
<path d="M85.1231 443.168C83.8911 443.168 82.7871 442.968 81.8111 442.568C80.8351 442.168 80.0511 441.576 79.4591 440.792C78.8831 440.008 78.5791 439.064 78.5471 437.96H82.9151C82.9791 438.584 83.1951 439.064 83.5631 439.4C83.9311 439.72 84.4111 439.88 85.0031 439.88C85.6111 439.88 86.0911 439.744 86.4431 439.472C86.7951 439.184 86.9711 438.792 86.9711 438.296C86.9711 437.88 86.8271 437.536 86.5391 437.264C86.2671 436.992 85.9231 436.768 85.5071 436.592C85.1071 436.416 84.5311 436.216 83.7791 435.992C82.6911 435.656 81.8031 435.32 81.1151 434.984C80.4271 434.648 79.8351 434.152 79.3391 433.496C78.8431 432.84 78.5951 431.984 78.5951 430.928C78.5951 429.36 79.1631 428.136 80.2991 427.256C81.4351 426.36 82.9151 425.912 84.7391 425.912C86.5951 425.912 88.0911 426.36 89.2271 427.256C90.3631 428.136 90.9711 429.368 91.0511 430.952H86.6111C86.5791 430.408 86.3791 429.984 86.0111 429.68C85.6431 429.36 85.1711 429.2 84.5951 429.2C84.0991 429.2 83.6991 429.336 83.3951 429.608C83.0911 429.864 82.9391 430.24 82.9391 430.736C82.9391 431.28 83.1951 431.704 83.7071 432.008C84.2191 432.312 85.0191 432.64 86.1071 432.992C87.1951 433.36 88.0751 433.712 88.7471 434.048C89.4351 434.384 90.0271 434.872 90.5231 435.512C91.0191 436.152 91.2671 436.976 91.2671 437.984C91.2671 438.944 91.0191 439.816 90.5231 440.6C90.0431 441.384 89.3391 442.008 88.4111 442.472C87.4831 442.936 86.3871 443.168 85.1231 443.168ZM107.017 429.608V443H102.913V441.176C102.497 441.768 101.929 442.248 101.209 442.616C100.505 442.968 99.7207 443.144 98.8567 443.144C97.8327 443.144 96.9287 442.92 96.1447 442.472C95.3607 442.008 94.7527 441.344 94.3207 440.48C93.8887 439.616 93.6727 438.6 93.6727 437.432V429.608H97.7527V436.88C97.7527 437.776 97.9847 438.472 98.4487 438.968C98.9127 439.464 99.5367 439.712 100.321 439.712C101.121 439.712 101.753 439.464 102.217 438.968C102.681 438.472 102.913 437.776 102.913 436.88V429.608H107.017ZM114.069 431.504C114.453 430.88 115.005 430.376 115.725 429.992C116.445 429.608 117.269 429.416 118.197 429.416C119.301 429.416 120.301 429.696 121.197 430.256C122.093 430.816 122.797 431.616 123.309 432.656C123.837 433.696 124.101 434.904 124.101 436.28C124.101 437.656 123.837 438.872 123.309 439.928C122.797 440.968 122.093 441.776 121.197 442.352C120.301 442.912 119.301 443.192 118.197 443.192C117.253 443.192 116.429 443.008 115.725 442.64C115.021 442.256 114.469 441.752 114.069 441.128V443H109.965V425.24H114.069V431.504ZM119.925 436.28C119.925 435.256 119.637 434.456 119.061 433.88C118.501 433.288 117.805 432.992 116.973 432.992C116.157 432.992 115.461 433.288 114.885 433.88C114.325 434.472 114.045 435.28 114.045 436.304C114.045 437.328 114.325 438.136 114.885 438.728C115.461 439.32 116.157 439.616 116.973 439.616C117.789 439.616 118.485 439.32 119.061 438.728C119.637 438.12 119.925 437.304 119.925 436.28ZM143.342 429.464C145.006 429.464 146.326 429.968 147.302 430.976C148.294 431.984 148.79 433.384 148.79 435.176V443H144.71V435.728C144.71 434.864 144.478 434.2 144.014 433.736C143.566 433.256 142.942 433.016 142.142 433.016C141.342 433.016 140.71 433.256 140.246 433.736C139.798 434.2 139.574 434.864 139.574 435.728V443H135.494V435.728C135.494 434.864 135.262 434.2 134.798 433.736C134.35 433.256 133.726 433.016 132.926 433.016C132.126 433.016 131.494 433.256 131.03 433.736C130.582 434.2 130.358 434.864 130.358 435.728V443H126.254V429.608H130.358V431.288C130.774 430.728 131.318 430.288 131.99 429.968C132.662 429.632 133.422 429.464 134.27 429.464C135.278 429.464 136.174 429.68 136.958 430.112C137.758 430.544 138.382 431.16 138.83 431.96C139.294 431.224 139.926 430.624 140.726 430.16C141.526 429.696 142.398 429.464 143.342 429.464ZM153.724 428.216C153.004 428.216 152.412 428.008 151.948 427.592C151.5 427.16 151.276 426.632 151.276 426.008C151.276 425.368 151.5 424.84 151.948 424.424C152.412 423.992 153.004 423.776 153.724 423.776C154.428 423.776 155.004 423.992 155.452 424.424C155.916 424.84 156.148 425.368 156.148 426.008C156.148 426.632 155.916 427.16 155.452 427.592C155.004 428.008 154.428 428.216 153.724 428.216ZM155.764 429.608V443H151.66V429.608H155.764ZM166.202 439.52V443H164.114C162.626 443 161.466 442.64 160.634 441.92C159.802 441.184 159.386 439.992 159.386 438.344V433.016H157.754V429.608H159.386V426.344H163.49V429.608H166.178V433.016H163.49V438.392C163.49 438.792 163.586 439.08 163.778 439.256C163.97 439.432 164.29 439.52 164.738 439.52H166.202Z" fill="white"/>
<path d="M247.869 444.349H242.543V450H240.899V437.203H248.757V438.592H242.543V442.969H247.869V444.349ZM251.104 445.157C251.104 444.472 251.203 443.836 251.402 443.25C251.602 442.658 251.889 442.146 252.264 441.712C252.633 441.278 253.084 440.938 253.617 440.692C254.15 440.44 254.751 440.314 255.419 440.314C256.093 440.314 256.696 440.44 257.229 440.692C257.769 440.938 258.226 441.278 258.601 441.712C258.97 442.146 259.254 442.658 259.453 443.25C259.652 443.836 259.752 444.472 259.752 445.157V445.351C259.752 446.036 259.652 446.672 259.453 447.258C259.254 447.844 258.97 448.354 258.601 448.787C258.226 449.221 257.771 449.561 257.238 449.807C256.705 450.053 256.104 450.176 255.437 450.176C254.763 450.176 254.156 450.053 253.617 449.807C253.084 449.561 252.633 449.221 252.264 448.787C251.889 448.354 251.602 447.844 251.402 447.258C251.203 446.672 251.104 446.036 251.104 445.351V445.157ZM252.729 445.351C252.729 445.819 252.785 446.268 252.896 446.695C253.008 447.117 253.178 447.489 253.406 447.812C253.629 448.134 253.91 448.389 254.25 448.576C254.59 448.764 254.985 448.857 255.437 448.857C255.882 448.857 256.271 448.764 256.605 448.576C256.945 448.389 257.229 448.134 257.458 447.812C257.681 447.489 257.848 447.117 257.959 446.695C258.07 446.268 258.126 445.819 258.126 445.351V445.157C258.126 444.694 258.067 444.252 257.95 443.83C257.839 443.402 257.672 443.027 257.449 442.705C257.221 442.383 256.937 442.128 256.597 441.94C256.263 441.747 255.87 441.65 255.419 441.65C254.968 441.65 254.575 441.747 254.241 441.94C253.907 442.128 253.629 442.383 253.406 442.705C253.178 443.027 253.008 443.402 252.896 443.83C252.785 444.252 252.729 444.694 252.729 445.157V445.351ZM268.603 440.314C268.901 440.314 269.212 440.335 269.534 440.376C269.862 440.417 270.108 440.473 270.272 440.543L270.053 442.134C269.736 442.063 269.435 442.014 269.147 441.984C268.866 441.949 268.57 441.932 268.26 441.932C267.861 441.932 267.501 441.981 267.179 442.081C266.856 442.175 266.575 442.315 266.335 442.503C266.118 442.667 265.928 442.869 265.764 443.109C265.605 443.344 265.474 443.607 265.368 443.9V450H263.733V440.49H265.28L265.351 441.765L265.359 442.002C265.746 441.48 266.209 441.07 266.748 440.771C267.293 440.467 267.911 440.314 268.603 440.314ZM272.883 445.166C272.883 444.457 272.968 443.807 273.138 443.215C273.313 442.617 273.565 442.104 273.894 441.677C274.222 441.249 274.62 440.915 275.089 440.675C275.558 440.435 276.088 440.314 276.68 440.314C277.061 440.314 277.409 440.358 277.726 440.446C278.048 440.534 278.338 440.663 278.596 440.833C278.736 440.921 278.868 441.023 278.991 441.141C279.12 441.258 279.24 441.387 279.352 441.527L279.431 440.49H280.907V449.798C280.907 450.425 280.808 450.981 280.608 451.468C280.415 451.954 280.143 452.367 279.791 452.707C279.434 453.047 279.009 453.305 278.517 453.48C278.024 453.656 277.479 453.744 276.882 453.744C276.636 453.744 276.354 453.715 276.038 453.656C275.722 453.604 275.402 453.513 275.08 453.384C274.752 453.261 274.436 453.094 274.131 452.883C273.832 452.672 273.574 452.411 273.357 452.101L274.201 451.125C274.4 451.365 274.605 451.567 274.816 451.731C275.027 451.901 275.241 452.036 275.458 452.136C275.675 452.235 275.892 452.306 276.108 452.347C276.325 452.394 276.542 452.417 276.759 452.417C277.146 452.417 277.494 452.361 277.805 452.25C278.115 452.139 278.382 451.975 278.604 451.758C278.821 451.547 278.988 451.283 279.105 450.967C279.223 450.65 279.281 450.287 279.281 449.877V449.06C279.158 449.2 279.026 449.329 278.886 449.446C278.751 449.563 278.604 449.666 278.446 449.754C278.2 449.889 277.928 449.991 277.629 450.062C277.33 450.138 277.008 450.176 276.662 450.176C276.082 450.176 275.558 450.053 275.089 449.807C274.62 449.561 274.225 449.221 273.902 448.787C273.574 448.354 273.322 447.844 273.146 447.258C272.971 446.666 272.883 446.03 272.883 445.351V445.166ZM274.509 445.351C274.509 445.813 274.556 446.253 274.649 446.669C274.749 447.085 274.904 447.451 275.115 447.768C275.32 448.084 275.584 448.336 275.906 448.523C276.229 448.705 276.615 448.796 277.066 448.796C277.348 448.796 277.6 448.764 277.822 448.699C278.051 448.629 278.256 448.532 278.438 448.409C278.613 448.286 278.771 448.14 278.912 447.97C279.053 447.8 279.176 447.612 279.281 447.407V443.048C279.176 442.849 279.053 442.667 278.912 442.503C278.771 442.339 278.61 442.195 278.429 442.072C278.247 441.955 278.045 441.864 277.822 441.8C277.6 441.729 277.354 441.694 277.084 441.694C276.627 441.694 276.234 441.788 275.906 441.976C275.584 442.163 275.32 442.415 275.115 442.731C274.904 443.054 274.749 443.426 274.649 443.848C274.556 444.264 274.509 444.703 274.509 445.166V445.351ZM288.193 450.176C287.525 450.176 286.91 450.062 286.348 449.833C285.791 449.604 285.313 449.285 284.915 448.875C284.517 448.465 284.206 447.979 283.983 447.416C283.761 446.854 283.649 446.241 283.649 445.579V445.21C283.649 444.442 283.772 443.757 284.019 443.153C284.265 442.544 284.593 442.028 285.003 441.606C285.407 441.19 285.867 440.871 286.383 440.648C286.904 440.426 287.438 440.314 287.982 440.314C288.668 440.314 289.266 440.435 289.775 440.675C290.291 440.909 290.719 441.234 291.059 441.65C291.398 442.072 291.65 442.567 291.814 443.136C291.984 443.704 292.069 444.319 292.069 444.981V445.711H285.275V445.772C285.316 446.235 285.407 446.643 285.548 446.994C285.694 447.346 285.894 447.656 286.146 447.926C286.403 448.213 286.714 448.438 287.077 448.603C287.44 448.767 287.842 448.849 288.281 448.849C288.861 448.849 289.377 448.731 289.828 448.497C290.279 448.263 290.654 447.952 290.953 447.565L291.946 448.339C291.63 448.819 291.155 449.247 290.522 449.622C289.896 449.991 289.119 450.176 288.193 450.176ZM287.982 441.65C287.654 441.65 287.344 441.712 287.051 441.835C286.758 441.952 286.494 442.125 286.26 442.354C286.025 442.588 285.826 442.875 285.662 443.215C285.504 443.549 285.393 443.936 285.328 444.375H290.443V444.296C290.443 444.003 290.388 443.689 290.276 443.355C290.165 443.016 290.01 442.723 289.811 442.477C289.611 442.23 289.359 442.031 289.055 441.879C288.756 441.727 288.398 441.65 287.982 441.65ZM298.652 438.188V440.49H302.273V441.747H298.652V446.915C298.652 447.284 298.699 447.589 298.793 447.829C298.887 448.069 299.016 448.26 299.18 448.4C299.344 448.547 299.531 448.649 299.742 448.708C299.959 448.767 300.188 448.796 300.428 448.796C300.604 448.796 300.785 448.787 300.973 448.77C301.16 448.746 301.345 448.72 301.526 448.69C301.702 448.661 301.866 448.632 302.019 448.603C302.177 448.567 302.306 448.538 302.405 448.515L302.634 449.666C302.499 449.748 302.335 449.821 302.142 449.886C301.948 449.944 301.737 449.994 301.509 450.035C301.28 450.082 301.037 450.117 300.779 450.141C300.527 450.164 300.275 450.176 300.023 450.176C299.602 450.176 299.206 450.117 298.837 450C298.474 449.877 298.157 449.684 297.888 449.42C297.618 449.162 297.404 448.828 297.246 448.418C297.094 448.002 297.018 447.501 297.018 446.915V441.747H294.521V440.49H297.018V438.188H298.652ZM318.199 444.867V450H316.573V437.203H320.722C321.296 437.215 321.838 437.306 322.348 437.476C322.863 437.646 323.314 437.892 323.701 438.214C324.088 438.536 324.393 438.935 324.615 439.409C324.844 439.884 324.958 440.429 324.958 441.044C324.958 441.659 324.844 442.204 324.615 442.679C324.393 443.147 324.088 443.543 323.701 443.865C323.314 444.188 322.863 444.434 322.348 444.604C321.838 444.773 321.296 444.861 320.722 444.867H318.199ZM318.199 443.531H320.722C321.097 443.525 321.442 443.467 321.759 443.355C322.075 443.238 322.351 443.074 322.585 442.863C322.819 442.652 323.001 442.397 323.13 442.099C323.265 441.794 323.332 441.448 323.332 441.062C323.332 440.675 323.265 440.326 323.13 440.016C323.001 439.705 322.822 439.441 322.594 439.225C322.359 439.008 322.081 438.841 321.759 438.724C321.442 438.606 321.097 438.545 320.722 438.539H318.199V443.531ZM333.483 450C333.419 449.877 333.366 449.725 333.325 449.543C333.29 449.355 333.264 449.162 333.246 448.963C333.082 449.127 332.897 449.282 332.692 449.429C332.493 449.575 332.273 449.704 332.033 449.815C331.787 449.927 331.526 450.015 331.251 450.079C330.976 450.144 330.683 450.176 330.372 450.176C329.868 450.176 329.411 450.103 329.001 449.956C328.597 449.81 328.254 449.61 327.973 449.358C327.686 449.112 327.463 448.819 327.305 448.479C327.152 448.134 327.076 447.762 327.076 447.363C327.076 446.842 327.179 446.385 327.384 445.992C327.595 445.6 327.891 445.271 328.271 445.008C328.652 444.75 329.109 444.557 329.643 444.428C330.182 444.299 330.782 444.234 331.444 444.234H333.22V443.487C333.22 443.2 333.167 442.942 333.062 442.714C332.956 442.485 332.807 442.289 332.613 442.125C332.42 441.967 332.183 441.844 331.901 441.756C331.626 441.668 331.315 441.624 330.97 441.624C330.647 441.624 330.357 441.665 330.1 441.747C329.848 441.829 329.634 441.938 329.458 442.072C329.282 442.207 329.145 442.368 329.045 442.556C328.951 442.737 328.904 442.928 328.904 443.127H327.27C327.275 442.781 327.363 442.441 327.533 442.107C327.709 441.773 327.961 441.472 328.289 441.202C328.611 440.938 329.004 440.725 329.467 440.561C329.936 440.396 330.466 440.314 331.058 440.314C331.597 440.314 332.098 440.382 332.561 440.517C333.023 440.646 333.425 440.842 333.765 441.105C334.099 441.375 334.362 441.709 334.556 442.107C334.749 442.506 334.846 442.972 334.846 443.505V447.926C334.846 448.242 334.875 448.579 334.934 448.937C334.992 449.288 335.074 449.596 335.18 449.859V450H333.483ZM330.609 448.761C330.926 448.761 331.222 448.72 331.497 448.638C331.772 448.556 332.024 448.447 332.253 448.312C332.476 448.178 332.669 448.025 332.833 447.855C332.997 447.68 333.126 447.498 333.22 447.311V445.386H331.708C331.146 445.386 330.653 445.436 330.231 445.535C329.815 445.629 329.484 445.775 329.238 445.975C329.062 446.115 328.928 446.282 328.834 446.476C328.746 446.669 328.702 446.889 328.702 447.135C328.702 447.369 328.74 447.586 328.816 447.785C328.898 447.984 329.019 448.154 329.177 448.295C329.335 448.441 329.534 448.556 329.774 448.638C330.015 448.72 330.293 448.761 330.609 448.761ZM344.364 447.478C344.364 447.284 344.326 447.111 344.25 446.959C344.174 446.801 344.045 446.657 343.863 446.528C343.682 446.399 343.441 446.282 343.143 446.177C342.844 446.065 342.472 445.966 342.026 445.878C341.481 445.767 340.983 445.632 340.532 445.474C340.087 445.315 339.706 445.125 339.39 444.902C339.067 444.686 338.818 444.431 338.643 444.138C338.467 443.839 338.379 443.493 338.379 443.101C338.379 442.714 338.47 442.354 338.651 442.02C338.833 441.68 339.088 441.384 339.416 441.132C339.744 440.88 340.134 440.681 340.585 440.534C341.042 440.388 341.543 440.314 342.088 440.314C342.674 440.314 343.201 440.391 343.67 440.543C344.139 440.695 344.537 440.906 344.865 441.176C345.193 441.445 345.445 441.762 345.621 442.125C345.803 442.482 345.894 442.869 345.894 443.285H344.268C344.268 443.08 344.215 442.881 344.109 442.688C344.004 442.488 343.857 442.312 343.67 442.16C343.482 442.008 343.254 441.885 342.984 441.791C342.721 441.697 342.422 441.65 342.088 441.65C341.742 441.65 341.438 441.688 341.174 441.765C340.916 441.841 340.702 441.943 340.532 442.072C340.356 442.201 340.225 442.351 340.137 442.521C340.049 442.69 340.005 442.866 340.005 443.048C340.005 443.235 340.04 443.402 340.11 443.549C340.181 443.695 340.304 443.827 340.479 443.944C340.649 444.062 340.878 444.167 341.165 444.261C341.458 444.354 341.827 444.445 342.272 444.533C342.858 444.656 343.383 444.8 343.846 444.964C344.309 445.122 344.698 445.312 345.015 445.535C345.331 445.764 345.571 446.027 345.735 446.326C345.905 446.625 345.99 446.971 345.99 447.363C345.99 447.785 345.894 448.169 345.7 448.515C345.513 448.86 345.249 449.156 344.909 449.402C344.569 449.648 344.162 449.839 343.688 449.974C343.213 450.108 342.694 450.176 342.132 450.176C341.487 450.176 340.913 450.091 340.409 449.921C339.905 449.745 339.48 449.514 339.135 449.227C338.783 448.945 338.514 448.617 338.326 448.242C338.145 447.867 338.054 447.478 338.054 447.073H339.68C339.703 447.407 339.791 447.688 339.943 447.917C340.102 448.146 340.298 448.33 340.532 448.471C340.761 448.611 341.016 448.711 341.297 448.77C341.578 448.828 341.856 448.857 342.132 448.857C342.565 448.857 342.943 448.808 343.266 448.708C343.588 448.603 343.84 448.459 344.021 448.277C344.133 448.166 344.218 448.043 344.276 447.908C344.335 447.773 344.364 447.63 344.364 447.478ZM355.175 447.478C355.175 447.284 355.137 447.111 355.061 446.959C354.984 446.801 354.855 446.657 354.674 446.528C354.492 446.399 354.252 446.282 353.953 446.177C353.654 446.065 353.282 445.966 352.837 445.878C352.292 445.767 351.794 445.632 351.343 445.474C350.897 445.315 350.517 445.125 350.2 444.902C349.878 444.686 349.629 444.431 349.453 444.138C349.277 443.839 349.189 443.493 349.189 443.101C349.189 442.714 349.28 442.354 349.462 442.02C349.644 441.68 349.898 441.384 350.227 441.132C350.555 440.88 350.944 440.681 351.396 440.534C351.853 440.388 352.354 440.314 352.898 440.314C353.484 440.314 354.012 440.391 354.48 440.543C354.949 440.695 355.348 440.906 355.676 441.176C356.004 441.445 356.256 441.762 356.432 442.125C356.613 442.482 356.704 442.869 356.704 443.285H355.078C355.078 443.08 355.025 442.881 354.92 442.688C354.814 442.488 354.668 442.312 354.48 442.16C354.293 442.008 354.064 441.885 353.795 441.791C353.531 441.697 353.232 441.65 352.898 441.65C352.553 441.65 352.248 441.688 351.984 441.765C351.727 441.841 351.513 441.943 351.343 442.072C351.167 442.201 351.035 442.351 350.947 442.521C350.859 442.69 350.815 442.866 350.815 443.048C350.815 443.235 350.851 443.402 350.921 443.549C350.991 443.695 351.114 443.827 351.29 443.944C351.46 444.062 351.688 444.167 351.976 444.261C352.269 444.354 352.638 444.445 353.083 444.533C353.669 444.656 354.193 444.8 354.656 444.964C355.119 445.122 355.509 445.312 355.825 445.535C356.142 445.764 356.382 446.027 356.546 446.326C356.716 446.625 356.801 446.971 356.801 447.363C356.801 447.785 356.704 448.169 356.511 448.515C356.323 448.86 356.06 449.156 355.72 449.402C355.38 449.648 354.973 449.839 354.498 449.974C354.023 450.108 353.505 450.176 352.942 450.176C352.298 450.176 351.724 450.091 351.22 449.921C350.716 449.745 350.291 449.514 349.945 449.227C349.594 448.945 349.324 448.617 349.137 448.242C348.955 447.867 348.864 447.478 348.864 447.073H350.49C350.514 447.407 350.602 447.688 350.754 447.917C350.912 448.146 351.108 448.33 351.343 448.471C351.571 448.611 351.826 448.711 352.107 448.77C352.389 448.828 352.667 448.857 352.942 448.857C353.376 448.857 353.754 448.808 354.076 448.708C354.398 448.603 354.65 448.459 354.832 448.277C354.943 448.166 355.028 448.043 355.087 447.908C355.146 447.773 355.175 447.63 355.175 447.478ZM360.58 450L358.559 440.49H360L361.107 446.555L361.301 447.917L361.538 446.555L363.059 440.49H364.104L365.616 446.555L365.871 448.049L366.108 446.555L367.163 440.49H368.604L366.583 450H365.3L363.814 444.173L363.568 442.696L363.331 444.173L361.863 450H360.58ZM370.02 445.157C370.02 444.472 370.119 443.836 370.318 443.25C370.518 442.658 370.805 442.146 371.18 441.712C371.549 441.278 372 440.938 372.533 440.692C373.066 440.44 373.667 440.314 374.335 440.314C375.009 440.314 375.612 440.44 376.146 440.692C376.685 440.938 377.142 441.278 377.517 441.712C377.886 442.146 378.17 442.658 378.369 443.25C378.568 443.836 378.668 444.472 378.668 445.157V445.351C378.668 446.036 378.568 446.672 378.369 447.258C378.17 447.844 377.886 448.354 377.517 448.787C377.142 449.221 376.688 449.561 376.154 449.807C375.621 450.053 375.021 450.176 374.353 450.176C373.679 450.176 373.072 450.053 372.533 449.807C372 449.561 371.549 449.221 371.18 448.787C370.805 448.354 370.518 447.844 370.318 447.258C370.119 446.672 370.02 446.036 370.02 445.351V445.157ZM371.646 445.351C371.646 445.819 371.701 446.268 371.812 446.695C371.924 447.117 372.094 447.489 372.322 447.812C372.545 448.134 372.826 448.389 373.166 448.576C373.506 448.764 373.901 448.857 374.353 448.857C374.798 448.857 375.188 448.764 375.521 448.576C375.861 448.389 376.146 448.134 376.374 447.812C376.597 447.489 376.764 447.117 376.875 446.695C376.986 446.268 377.042 445.819 377.042 445.351V445.157C377.042 444.694 376.983 444.252 376.866 443.83C376.755 443.402 376.588 443.027 376.365 442.705C376.137 442.383 375.853 442.128 375.513 441.94C375.179 441.747 374.786 441.65 374.335 441.65C373.884 441.65 373.491 441.747 373.157 441.94C372.823 442.128 372.545 442.383 372.322 442.705C372.094 443.027 371.924 443.402 371.812 443.83C371.701 444.252 371.646 444.694 371.646 445.157V445.351ZM387.519 440.314C387.817 440.314 388.128 440.335 388.45 440.376C388.778 440.417 389.024 440.473 389.188 440.543L388.969 442.134C388.652 442.063 388.351 442.014 388.063 441.984C387.782 441.949 387.486 441.932 387.176 441.932C386.777 441.932 386.417 441.981 386.095 442.081C385.772 442.175 385.491 442.315 385.251 442.503C385.034 442.667 384.844 442.869 384.68 443.109C384.521 443.344 384.39 443.607 384.284 443.9V450H382.649V440.49H384.196L384.267 441.765L384.275 442.002C384.662 441.48 385.125 441.07 385.664 440.771C386.209 440.467 386.827 440.314 387.519 440.314ZM391.79 445.166C391.79 444.457 391.878 443.807 392.054 443.215C392.235 442.617 392.493 442.104 392.827 441.677C393.155 441.249 393.554 440.915 394.022 440.675C394.491 440.435 395.016 440.314 395.596 440.314C396.164 440.314 396.659 440.411 397.081 440.604C397.509 440.792 397.878 441.067 398.188 441.431V436.5H399.814V450H398.32L398.25 448.998C397.934 449.385 397.556 449.678 397.116 449.877C396.677 450.076 396.164 450.176 395.578 450.176C395.004 450.176 394.482 450.053 394.014 449.807C393.551 449.561 393.155 449.221 392.827 448.787C392.499 448.354 392.244 447.844 392.062 447.258C391.881 446.666 391.79 446.03 391.79 445.351V445.166ZM393.416 445.351C393.416 445.813 393.466 446.253 393.565 446.669C393.665 447.085 393.82 447.451 394.031 447.768C394.236 448.084 394.5 448.336 394.822 448.523C395.145 448.705 395.531 448.796 395.982 448.796C396.527 448.796 396.979 448.673 397.336 448.427C397.693 448.181 397.978 447.85 398.188 447.434V443.021C397.978 442.635 397.693 442.318 397.336 442.072C396.979 441.82 396.533 441.694 396 441.694C395.543 441.694 395.15 441.788 394.822 441.976C394.5 442.163 394.236 442.415 394.031 442.731C393.82 443.054 393.665 443.426 393.565 443.848C393.466 444.264 393.416 444.703 393.416 445.166V445.351ZM416.681 446.396C416.687 445.975 416.704 445.629 416.733 445.359C416.763 445.084 416.824 444.838 416.918 444.621C417.012 444.41 417.146 444.208 417.322 444.015C417.498 443.815 417.732 443.581 418.025 443.312C418.225 443.106 418.427 442.896 418.632 442.679C418.843 442.462 419.036 442.233 419.212 441.993C419.382 441.759 419.522 441.51 419.634 441.246C419.745 440.982 419.801 440.704 419.801 440.411C419.801 440.106 419.757 439.837 419.669 439.603C419.587 439.362 419.464 439.16 419.3 438.996C419.118 438.814 418.89 438.677 418.614 438.583C418.339 438.489 418.022 438.442 417.665 438.442C417.39 438.442 417.12 438.478 416.856 438.548C416.599 438.612 416.37 438.715 416.171 438.855C415.966 439.002 415.802 439.187 415.679 439.409C415.556 439.626 415.494 439.887 415.494 440.191H413.868C413.874 439.699 413.977 439.257 414.176 438.864C414.375 438.472 414.645 438.138 414.984 437.862C415.318 437.593 415.714 437.388 416.171 437.247C416.634 437.101 417.132 437.027 417.665 437.027C418.257 437.027 418.784 437.104 419.247 437.256C419.716 437.402 420.111 437.619 420.434 437.906C420.756 438.193 421.002 438.542 421.172 438.952C421.342 439.362 421.427 439.831 421.427 440.358C421.427 440.78 421.354 441.179 421.207 441.554C421.061 441.923 420.873 442.271 420.645 442.6C420.416 442.934 420.158 443.244 419.871 443.531C419.59 443.818 419.312 444.085 419.036 444.331C418.86 444.501 418.723 444.662 418.623 444.814C418.529 444.967 418.459 445.122 418.412 445.28C418.365 445.438 418.336 445.608 418.324 445.79C418.312 445.966 418.307 446.168 418.307 446.396H416.681ZM416.496 449.147C416.496 448.866 416.578 448.632 416.742 448.444C416.912 448.257 417.164 448.163 417.498 448.163C417.832 448.163 418.084 448.257 418.254 448.444C418.43 448.632 418.518 448.866 418.518 449.147C418.518 449.417 418.43 449.643 418.254 449.824C418.084 450.006 417.832 450.097 417.498 450.097C417.164 450.097 416.912 450.006 416.742 449.824C416.578 449.643 416.496 449.417 416.496 449.147Z" fill="#FF0A36"/>
<path d="M66.8984 310.938L69.6758 319.469L72.6758 310.938H75.3711V328H73.2617V321.191L73.4375 314.066L70.2852 323.254H69.043L66.1484 314.312L66.3242 321.191V328H64.2148V310.938H66.8984ZM87.2656 328C87.1797 327.836 87.1094 327.633 87.0547 327.391C87.0078 327.141 86.9727 326.883 86.9492 326.617C86.7305 326.836 86.4844 327.043 86.2109 327.238C85.9453 327.434 85.6523 327.605 85.332 327.754C85.0039 327.902 84.6562 328.02 84.2891 328.105C83.9219 328.191 83.5312 328.234 83.1172 328.234C82.4453 328.234 81.8359 328.137 81.2891 327.941C80.75 327.746 80.293 327.48 79.918 327.145C79.5352 326.816 79.2383 326.426 79.0273 325.973C78.8242 325.512 78.7227 325.016 78.7227 324.484C78.7227 323.789 78.8594 323.18 79.1328 322.656C79.4141 322.133 79.8086 321.695 80.3164 321.344C80.8242 321 81.4336 320.742 82.1445 320.57C82.8633 320.398 83.6641 320.312 84.5469 320.312H86.9141V319.316C86.9141 318.934 86.8438 318.59 86.7031 318.285C86.5625 317.98 86.3633 317.719 86.1055 317.5C85.8477 317.289 85.5312 317.125 85.1562 317.008C84.7891 316.891 84.375 316.832 83.9141 316.832C83.4844 316.832 83.0977 316.887 82.7539 316.996C82.418 317.105 82.1328 317.25 81.8984 317.43C81.6641 317.609 81.4805 317.824 81.3477 318.074C81.2227 318.316 81.1602 318.57 81.1602 318.836H78.9805C78.9883 318.375 79.1055 317.922 79.332 317.477C79.5664 317.031 79.9023 316.629 80.3398 316.27C80.7695 315.918 81.293 315.633 81.9102 315.414C82.5352 315.195 83.2422 315.086 84.0312 315.086C84.75 315.086 85.418 315.176 86.0352 315.355C86.6523 315.527 87.1875 315.789 87.6406 316.141C88.0859 316.5 88.4375 316.945 88.6953 317.477C88.9531 318.008 89.082 318.629 89.082 319.34V325.234C89.082 325.656 89.1211 326.105 89.1992 326.582C89.2773 327.051 89.3867 327.461 89.5273 327.812V328H87.2656ZM83.4336 326.348C83.8555 326.348 84.25 326.293 84.6172 326.184C84.9844 326.074 85.3203 325.93 85.625 325.75C85.9219 325.57 86.1797 325.367 86.3984 325.141C86.6172 324.906 86.7891 324.664 86.9141 324.414V321.848H84.8984C84.1484 321.848 83.4922 321.914 82.9297 322.047C82.375 322.172 81.9336 322.367 81.6055 322.633C81.3711 322.82 81.1914 323.043 81.0664 323.301C80.9492 323.559 80.8906 323.852 80.8906 324.18C80.8906 324.492 80.9414 324.781 81.043 325.047C81.1523 325.312 81.3125 325.539 81.5234 325.727C81.7344 325.922 82 326.074 82.3203 326.184C82.6406 326.293 83.0117 326.348 83.4336 326.348ZM101.773 324.637C101.773 324.379 101.723 324.148 101.621 323.945C101.52 323.734 101.348 323.543 101.105 323.371C100.863 323.199 100.543 323.043 100.145 322.902C99.7461 322.754 99.25 322.621 98.6562 322.504C97.9297 322.355 97.2656 322.176 96.6641 321.965C96.0703 321.754 95.5625 321.5 95.1406 321.203C94.7109 320.914 94.3789 320.574 94.1445 320.184C93.9102 319.785 93.793 319.324 93.793 318.801C93.793 318.285 93.9141 317.805 94.1562 317.359C94.3984 316.906 94.7383 316.512 95.1758 316.176C95.6133 315.84 96.1328 315.574 96.7344 315.379C97.3438 315.184 98.0117 315.086 98.7383 315.086C99.5195 315.086 100.223 315.188 100.848 315.391C101.473 315.594 102.004 315.875 102.441 316.234C102.879 316.594 103.215 317.016 103.449 317.5C103.691 317.977 103.812 318.492 103.812 319.047H101.645C101.645 318.773 101.574 318.508 101.434 318.25C101.293 317.984 101.098 317.75 100.848 317.547C100.598 317.344 100.293 317.18 99.9336 317.055C99.582 316.93 99.1836 316.867 98.7383 316.867C98.2773 316.867 97.8711 316.918 97.5195 317.02C97.1758 317.121 96.8906 317.258 96.6641 317.43C96.4297 317.602 96.2539 317.801 96.1367 318.027C96.0195 318.254 95.9609 318.488 95.9609 318.73C95.9609 318.98 96.0078 319.203 96.1016 319.398C96.1953 319.594 96.3594 319.77 96.5938 319.926C96.8203 320.082 97.125 320.223 97.5078 320.348C97.8984 320.473 98.3906 320.594 98.9844 320.711C99.7656 320.875 100.465 321.066 101.082 321.285C101.699 321.496 102.219 321.75 102.641 322.047C103.062 322.352 103.383 322.703 103.602 323.102C103.828 323.5 103.941 323.961 103.941 324.484C103.941 325.047 103.812 325.559 103.555 326.02C103.305 326.48 102.953 326.875 102.5 327.203C102.047 327.531 101.504 327.785 100.871 327.965C100.238 328.145 99.5469 328.234 98.7969 328.234C97.9375 328.234 97.1719 328.121 96.5 327.895C95.8281 327.66 95.2617 327.352 94.8008 326.969C94.332 326.594 93.9727 326.156 93.7227 325.656C93.4805 325.156 93.3594 324.637 93.3594 324.098H95.5273C95.5586 324.543 95.6758 324.918 95.8789 325.223C96.0898 325.527 96.3516 325.773 96.6641 325.961C96.9688 326.148 97.3086 326.281 97.6836 326.359C98.0586 326.438 98.4297 326.477 98.7969 326.477C99.375 326.477 99.8789 326.41 100.309 326.277C100.738 326.137 101.074 325.945 101.316 325.703C101.465 325.555 101.578 325.391 101.656 325.211C101.734 325.031 101.773 324.84 101.773 324.637ZM116.117 328L115.988 326.254C115.566 326.879 115.039 327.367 114.406 327.719C113.773 328.062 113.043 328.234 112.215 328.234C111.551 328.234 110.949 328.133 110.41 327.93C109.871 327.719 109.41 327.395 109.027 326.957C108.645 326.52 108.348 325.965 108.137 325.293C107.934 324.613 107.832 323.801 107.832 322.855V315.32H110V322.879C110 323.566 110.055 324.137 110.164 324.59C110.273 325.043 110.438 325.402 110.656 325.668C110.875 325.941 111.141 326.133 111.453 326.242C111.773 326.352 112.141 326.406 112.555 326.406C113.039 326.406 113.473 326.352 113.855 326.242C114.238 326.125 114.57 325.965 114.852 325.762C115.086 325.598 115.289 325.402 115.461 325.176C115.641 324.941 115.789 324.688 115.906 324.414V315.32H118.086V328H116.117ZM125.973 322.082L124.379 323.617V328H122.199V310H124.379V321.016L125.797 319.492L129.957 315.32H132.594L127.461 320.605L133.379 328H130.625L125.973 322.082ZM140.387 322.082L138.793 323.617V328H136.613V310H138.793V321.016L140.211 319.492L144.371 315.32H147.008L141.875 320.605L147.793 328H145.039L140.387 322.082ZM159.336 328C159.25 327.836 159.18 327.633 159.125 327.391C159.078 327.141 159.043 326.883 159.02 326.617C158.801 326.836 158.555 327.043 158.281 327.238C158.016 327.434 157.723 327.605 157.402 327.754C157.074 327.902 156.727 328.02 156.359 328.105C155.992 328.191 155.602 328.234 155.188 328.234C154.516 328.234 153.906 328.137 153.359 327.941C152.82 327.746 152.363 327.48 151.988 327.145C151.605 326.816 151.309 326.426 151.098 325.973C150.895 325.512 150.793 325.016 150.793 324.484C150.793 323.789 150.93 323.18 151.203 322.656C151.484 322.133 151.879 321.695 152.387 321.344C152.895 321 153.504 320.742 154.215 320.57C154.934 320.398 155.734 320.312 156.617 320.312H158.984V319.316C158.984 318.934 158.914 318.59 158.773 318.285C158.633 317.98 158.434 317.719 158.176 317.5C157.918 317.289 157.602 317.125 157.227 317.008C156.859 316.891 156.445 316.832 155.984 316.832C155.555 316.832 155.168 316.887 154.824 316.996C154.488 317.105 154.203 317.25 153.969 317.43C153.734 317.609 153.551 317.824 153.418 318.074C153.293 318.316 153.23 318.57 153.23 318.836H151.051C151.059 318.375 151.176 317.922 151.402 317.477C151.637 317.031 151.973 316.629 152.41 316.27C152.84 315.918 153.363 315.633 153.98 315.414C154.605 315.195 155.312 315.086 156.102 315.086C156.82 315.086 157.488 315.176 158.105 315.355C158.723 315.527 159.258 315.789 159.711 316.141C160.156 316.5 160.508 316.945 160.766 317.477C161.023 318.008 161.152 318.629 161.152 319.34V325.234C161.152 325.656 161.191 326.105 161.27 326.582C161.348 327.051 161.457 327.461 161.598 327.812V328H159.336ZM155.504 326.348C155.926 326.348 156.32 326.293 156.688 326.184C157.055 326.074 157.391 325.93 157.695 325.75C157.992 325.57 158.25 325.367 158.469 325.141C158.688 324.906 158.859 324.664 158.984 324.414V321.848H156.969C156.219 321.848 155.562 321.914 155 322.047C154.445 322.172 154.004 322.367 153.676 322.633C153.441 322.82 153.262 323.043 153.137 323.301C153.02 323.559 152.961 323.852 152.961 324.18C152.961 324.492 153.012 324.781 153.113 325.047C153.223 325.312 153.383 325.539 153.594 325.727C153.805 325.922 154.07 326.074 154.391 326.184C154.711 326.293 155.082 326.348 155.504 326.348ZM165.418 328V315.32H167.363L167.516 317.195C167.703 316.93 167.906 316.688 168.125 316.469C168.352 316.242 168.59 316.047 168.84 315.883C169.215 315.633 169.621 315.441 170.059 315.309C170.504 315.168 170.973 315.094 171.465 315.086C172.129 315.086 172.73 315.18 173.27 315.367C173.816 315.555 174.281 315.848 174.664 316.246C175.047 316.645 175.34 317.152 175.543 317.77C175.754 318.379 175.859 319.105 175.859 319.949V328H173.691V319.996C173.691 319.434 173.629 318.957 173.504 318.566C173.379 318.176 173.195 317.859 172.953 317.617C172.703 317.375 172.398 317.199 172.039 317.09C171.688 316.98 171.281 316.926 170.82 316.926C170.422 316.926 170.051 316.984 169.707 317.102C169.363 317.211 169.047 317.363 168.758 317.559C168.523 317.73 168.305 317.93 168.102 318.156C167.906 318.383 167.734 318.633 167.586 318.906V328H165.418ZM196.613 321.156V328H194.445V310.938H199.977C200.742 310.953 201.465 311.074 202.145 311.301C202.832 311.527 203.434 311.855 203.949 312.285C204.465 312.715 204.871 313.246 205.168 313.879C205.473 314.512 205.625 315.238 205.625 316.059C205.625 316.879 205.473 317.605 205.168 318.238C204.871 318.863 204.465 319.391 203.949 319.82C203.434 320.25 202.832 320.578 202.145 320.805C201.465 321.031 200.742 321.148 199.977 321.156H196.613ZM196.613 319.375H199.977C200.477 319.367 200.938 319.289 201.359 319.141C201.781 318.984 202.148 318.766 202.461 318.484C202.773 318.203 203.016 317.863 203.188 317.465C203.367 317.059 203.457 316.598 203.457 316.082C203.457 315.566 203.367 315.102 203.188 314.688C203.016 314.273 202.777 313.922 202.473 313.633C202.16 313.344 201.789 313.121 201.359 312.965C200.938 312.809 200.477 312.727 199.977 312.719H196.613V319.375ZM216.992 328C216.906 327.836 216.836 327.633 216.781 327.391C216.734 327.141 216.699 326.883 216.676 326.617C216.457 326.836 216.211 327.043 215.938 327.238C215.672 327.434 215.379 327.605 215.059 327.754C214.73 327.902 214.383 328.02 214.016 328.105C213.648 328.191 213.258 328.234 212.844 328.234C212.172 328.234 211.562 328.137 211.016 327.941C210.477 327.746 210.02 327.48 209.645 327.145C209.262 326.816 208.965 326.426 208.754 325.973C208.551 325.512 208.449 325.016 208.449 324.484C208.449 323.789 208.586 323.18 208.859 322.656C209.141 322.133 209.535 321.695 210.043 321.344C210.551 321 211.16 320.742 211.871 320.57C212.59 320.398 213.391 320.312 214.273 320.312H216.641V319.316C216.641 318.934 216.57 318.59 216.43 318.285C216.289 317.98 216.09 317.719 215.832 317.5C215.574 317.289 215.258 317.125 214.883 317.008C214.516 316.891 214.102 316.832 213.641 316.832C213.211 316.832 212.824 316.887 212.48 316.996C212.145 317.105 211.859 317.25 211.625 317.43C211.391 317.609 211.207 317.824 211.074 318.074C210.949 318.316 210.887 318.57 210.887 318.836H208.707C208.715 318.375 208.832 317.922 209.059 317.477C209.293 317.031 209.629 316.629 210.066 316.27C210.496 315.918 211.02 315.633 211.637 315.414C212.262 315.195 212.969 315.086 213.758 315.086C214.477 315.086 215.145 315.176 215.762 315.355C216.379 315.527 216.914 315.789 217.367 316.141C217.812 316.5 218.164 316.945 218.422 317.477C218.68 318.008 218.809 318.629 218.809 319.34V325.234C218.809 325.656 218.848 326.105 218.926 326.582C219.004 327.051 219.113 327.461 219.254 327.812V328H216.992ZM213.16 326.348C213.582 326.348 213.977 326.293 214.344 326.184C214.711 326.074 215.047 325.93 215.352 325.75C215.648 325.57 215.906 325.367 216.125 325.141C216.344 324.906 216.516 324.664 216.641 324.414V321.848H214.625C213.875 321.848 213.219 321.914 212.656 322.047C212.102 322.172 211.66 322.367 211.332 322.633C211.098 322.82 210.918 323.043 210.793 323.301C210.676 323.559 210.617 323.852 210.617 324.18C210.617 324.492 210.668 324.781 210.77 325.047C210.879 325.312 211.039 325.539 211.25 325.727C211.461 325.922 211.727 326.074 212.047 326.184C212.367 326.293 212.738 326.348 213.16 326.348ZM231.5 324.637C231.5 324.379 231.449 324.148 231.348 323.945C231.246 323.734 231.074 323.543 230.832 323.371C230.59 323.199 230.27 323.043 229.871 322.902C229.473 322.754 228.977 322.621 228.383 322.504C227.656 322.355 226.992 322.176 226.391 321.965C225.797 321.754 225.289 321.5 224.867 321.203C224.438 320.914 224.105 320.574 223.871 320.184C223.637 319.785 223.52 319.324 223.52 318.801C223.52 318.285 223.641 317.805 223.883 317.359C224.125 316.906 224.465 316.512 224.902 316.176C225.34 315.84 225.859 315.574 226.461 315.379C227.07 315.184 227.738 315.086 228.465 315.086C229.246 315.086 229.949 315.188 230.574 315.391C231.199 315.594 231.73 315.875 232.168 316.234C232.605 316.594 232.941 317.016 233.176 317.5C233.418 317.977 233.539 318.492 233.539 319.047H231.371C231.371 318.773 231.301 318.508 231.16 318.25C231.02 317.984 230.824 317.75 230.574 317.547C230.324 317.344 230.02 317.18 229.66 317.055C229.309 316.93 228.91 316.867 228.465 316.867C228.004 316.867 227.598 316.918 227.246 317.02C226.902 317.121 226.617 317.258 226.391 317.43C226.156 317.602 225.98 317.801 225.863 318.027C225.746 318.254 225.688 318.488 225.688 318.73C225.688 318.98 225.734 319.203 225.828 319.398C225.922 319.594 226.086 319.77 226.32 319.926C226.547 320.082 226.852 320.223 227.234 320.348C227.625 320.473 228.117 320.594 228.711 320.711C229.492 320.875 230.191 321.066 230.809 321.285C231.426 321.496 231.945 321.75 232.367 322.047C232.789 322.352 233.109 322.703 233.328 323.102C233.555 323.5 233.668 323.961 233.668 324.484C233.668 325.047 233.539 325.559 233.281 326.02C233.031 326.48 232.68 326.875 232.227 327.203C231.773 327.531 231.23 327.785 230.598 327.965C229.965 328.145 229.273 328.234 228.523 328.234C227.664 328.234 226.898 328.121 226.227 327.895C225.555 327.66 224.988 327.352 224.527 326.969C224.059 326.594 223.699 326.156 223.449 325.656C223.207 325.156 223.086 324.637 223.086 324.098H225.254C225.285 324.543 225.402 324.918 225.605 325.223C225.816 325.527 226.078 325.773 226.391 325.961C226.695 326.148 227.035 326.281 227.41 326.359C227.785 326.438 228.156 326.477 228.523 326.477C229.102 326.477 229.605 326.41 230.035 326.277C230.465 326.137 230.801 325.945 231.043 325.703C231.191 325.555 231.305 325.391 231.383 325.211C231.461 325.031 231.5 324.84 231.5 324.637ZM245.914 324.637C245.914 324.379 245.863 324.148 245.762 323.945C245.66 323.734 245.488 323.543 245.246 323.371C245.004 323.199 244.684 323.043 244.285 322.902C243.887 322.754 243.391 322.621 242.797 322.504C242.07 322.355 241.406 322.176 240.805 321.965C240.211 321.754 239.703 321.5 239.281 321.203C238.852 320.914 238.52 320.574 238.285 320.184C238.051 319.785 237.934 319.324 237.934 318.801C237.934 318.285 238.055 317.805 238.297 317.359C238.539 316.906 238.879 316.512 239.316 316.176C239.754 315.84 240.273 315.574 240.875 315.379C241.484 315.184 242.152 315.086 242.879 315.086C243.66 315.086 244.363 315.188 244.988 315.391C245.613 315.594 246.145 315.875 246.582 316.234C247.02 316.594 247.355 317.016 247.59 317.5C247.832 317.977 247.953 318.492 247.953 319.047H245.785C245.785 318.773 245.715 318.508 245.574 318.25C245.434 317.984 245.238 317.75 244.988 317.547C244.738 317.344 244.434 317.18 244.074 317.055C243.723 316.93 243.324 316.867 242.879 316.867C242.418 316.867 242.012 316.918 241.66 317.02C241.316 317.121 241.031 317.258 240.805 317.43C240.57 317.602 240.395 317.801 240.277 318.027C240.16 318.254 240.102 318.488 240.102 318.73C240.102 318.98 240.148 319.203 240.242 319.398C240.336 319.594 240.5 319.77 240.734 319.926C240.961 320.082 241.266 320.223 241.648 320.348C242.039 320.473 242.531 320.594 243.125 320.711C243.906 320.875 244.605 321.066 245.223 321.285C245.84 321.496 246.359 321.75 246.781 322.047C247.203 322.352 247.523 322.703 247.742 323.102C247.969 323.5 248.082 323.961 248.082 324.484C248.082 325.047 247.953 325.559 247.695 326.02C247.445 326.48 247.094 326.875 246.641 327.203C246.188 327.531 245.645 327.785 245.012 327.965C244.379 328.145 243.688 328.234 242.938 328.234C242.078 328.234 241.312 328.121 240.641 327.895C239.969 327.66 239.402 327.352 238.941 326.969C238.473 326.594 238.113 326.156 237.863 325.656C237.621 325.156 237.5 324.637 237.5 324.098H239.668C239.699 324.543 239.816 324.918 240.02 325.223C240.23 325.527 240.492 325.773 240.805 325.961C241.109 326.148 241.449 326.281 241.824 326.359C242.199 326.438 242.57 326.477 242.938 326.477C243.516 326.477 244.02 326.41 244.449 326.277C244.879 326.137 245.215 325.945 245.457 325.703C245.605 325.555 245.719 325.391 245.797 325.211C245.875 325.031 245.914 324.84 245.914 324.637ZM253.121 328L250.426 315.32H252.348L253.824 323.406L254.082 325.223L254.398 323.406L256.426 315.32H257.82L259.836 323.406L260.176 325.398L260.492 323.406L261.898 315.32H263.82L261.125 328H259.414L257.434 320.23L257.105 318.262L256.789 320.23L254.832 328H253.121ZM265.707 321.543C265.707 320.629 265.84 319.781 266.105 319C266.371 318.211 266.754 317.527 267.254 316.949C267.746 316.371 268.348 315.918 269.059 315.59C269.77 315.254 270.57 315.086 271.461 315.086C272.359 315.086 273.164 315.254 273.875 315.59C274.594 315.918 275.203 316.371 275.703 316.949C276.195 317.527 276.574 318.211 276.84 319C277.105 319.781 277.238 320.629 277.238 321.543V321.801C277.238 322.715 277.105 323.562 276.84 324.344C276.574 325.125 276.195 325.805 275.703 326.383C275.203 326.961 274.598 327.414 273.887 327.742C273.176 328.07 272.375 328.234 271.484 328.234C270.586 328.234 269.777 328.07 269.059 327.742C268.348 327.414 267.746 326.961 267.254 326.383C266.754 325.805 266.371 325.125 266.105 324.344C265.84 323.562 265.707 322.715 265.707 321.801V321.543ZM267.875 321.801C267.875 322.426 267.949 323.023 268.098 323.594C268.246 324.156 268.473 324.652 268.777 325.082C269.074 325.512 269.449 325.852 269.902 326.102C270.355 326.352 270.883 326.477 271.484 326.477C272.078 326.477 272.598 326.352 273.043 326.102C273.496 325.852 273.875 325.512 274.18 325.082C274.477 324.652 274.699 324.156 274.848 323.594C274.996 323.023 275.07 322.426 275.07 321.801V321.543C275.07 320.926 274.992 320.336 274.836 319.773C274.688 319.203 274.465 318.703 274.168 318.273C273.863 317.844 273.484 317.504 273.031 317.254C272.586 316.996 272.062 316.867 271.461 316.867C270.859 316.867 270.336 316.996 269.891 317.254C269.445 317.504 269.074 317.844 268.777 318.273C268.473 318.703 268.246 319.203 268.098 319.773C267.949 320.336 267.875 320.926 267.875 321.543V321.801ZM289.039 315.086C289.438 315.086 289.852 315.113 290.281 315.168C290.719 315.223 291.047 315.297 291.266 315.391L290.973 317.512C290.551 317.418 290.148 317.352 289.766 317.312C289.391 317.266 288.996 317.242 288.582 317.242C288.051 317.242 287.57 317.309 287.141 317.441C286.711 317.566 286.336 317.754 286.016 318.004C285.727 318.223 285.473 318.492 285.254 318.812C285.043 319.125 284.867 319.477 284.727 319.867V328H282.547V315.32H284.609L284.703 317.02L284.715 317.336C285.23 316.641 285.848 316.094 286.566 315.695C287.293 315.289 288.117 315.086 289.039 315.086ZM294.734 321.555C294.734 320.609 294.852 319.742 295.086 318.953C295.328 318.156 295.672 317.473 296.117 316.902C296.555 316.332 297.086 315.887 297.711 315.566C298.336 315.246 299.035 315.086 299.809 315.086C300.566 315.086 301.227 315.215 301.789 315.473C302.359 315.723 302.852 316.09 303.266 316.574V310H305.434V328H303.441L303.348 326.664C302.926 327.18 302.422 327.57 301.836 327.836C301.25 328.102 300.566 328.234 299.785 328.234C299.02 328.234 298.324 328.07 297.699 327.742C297.082 327.414 296.555 326.961 296.117 326.383C295.68 325.805 295.34 325.125 295.098 324.344C294.855 323.555 294.734 322.707 294.734 321.801V321.555ZM296.902 321.801C296.902 322.418 296.969 323.004 297.102 323.559C297.234 324.113 297.441 324.602 297.723 325.023C297.996 325.445 298.348 325.781 298.777 326.031C299.207 326.273 299.723 326.395 300.324 326.395C301.051 326.395 301.652 326.23 302.129 325.902C302.605 325.574 302.984 325.133 303.266 324.578V318.695C302.984 318.18 302.605 317.758 302.129 317.43C301.652 317.094 301.059 316.926 300.348 316.926C299.738 316.926 299.215 317.051 298.777 317.301C298.348 317.551 297.996 317.887 297.723 318.309C297.441 318.738 297.234 319.234 297.102 319.797C296.969 320.352 296.902 320.938 296.902 321.555V321.801Z" fill="white"/>
<rect x="53.5" y="293.5" width="363" height="51" stroke="#06F749" stroke-opacity="0.98"/>
<rect x="1" y="1" width="460" height="584" stroke="#06F7A0" stroke-width="2"/>
</g>
<defs>
<filter id="filter0_i_2_24" x="0" y="0" width="462" height="590" filterUnits="userSpaceOnUse" color-interpolation-filters="sRGB">
<feFlood flood-opacity="0" result="BackgroundImageFix"/>
<feBlend mode="normal" in="SourceGraphic" in2="BackgroundImageFix" result="shape"/>
<feColorMatrix in="SourceAlpha" type="matrix" values="0 0 0 0 0 0 0 0 0 0 0 0 0 0 0 0 0 0 127 0" result="hardAlpha"/>
<feOffset dy="4"/>
<feGaussianBlur stdDeviation="2"/>
<feComposite in2="hardAlpha" operator="arithmetic" k2="-1" k3="1"/>
<feColorMatrix type="matrix" values="0 0 0 0 0 0 0 0 0 0 0 0 0 0 0 0 0 0 0.25 0"/>
<feBlend mode="normal" in2="shape" result="effect1_innerShadow_2_24"/>
</filter>
</defs>
</svg>
