<svg width="61" height="60" viewBox="0 0 61 60" fill="none" xmlns="http://www.w3.org/2000/svg">
<path fill-rule="evenodd" clip-rule="evenodd" d="M37.8667 13.2H23.4667C18.1648 13.2 13.8667 17.4981 13.8667 22.8V37.2C13.8667 42.5019 18.1648 46.8 23.4667 46.8H37.8667C43.1685 46.8 47.4667 42.5019 47.4667 37.2V22.8C47.4667 17.4981 43.1685 13.2 37.8667 13.2Z" stroke="#E61479" stroke-width="3.6" stroke-linecap="round" stroke-linejoin="round"/>
<path fill-rule="evenodd" clip-rule="evenodd" d="M30.6668 37.2C26.6902 37.2 23.4668 33.9765 23.4668 30C23.4668 26.0234 26.6902 22.8 30.6668 22.8C34.6434 22.8 37.8668 26.0234 37.8668 30C37.8668 31.9094 37.1082 33.7409 35.7579 35.0911C34.4077 36.4413 32.5762 37.2 30.6668 37.2Z" stroke="#E61479" stroke-width="3.6" stroke-linecap="round" stroke-linejoin="round"/>
<path d="M40.2667 18C38.9412 18 37.8667 19.0745 37.8667 20.4C37.8667 21.7255 38.9412 22.8 40.2667 22.8C41.5922 22.8 42.6667 21.7255 42.6667 20.4C42.6667 19.0745 41.5922 18 40.2667 18Z" fill="#E61479"/>
<path d="M40.2667 19.2C39.6039 19.2 39.0667 19.7372 39.0667 20.4C39.0667 21.0627 39.6039 21.6 40.2667 21.6C40.9294 21.6 41.4667 21.0627 41.4667 20.4C41.4667 19.7372 40.9294 19.2 40.2667 19.2Z" stroke="#E61479" stroke-width="2.4" stroke-linecap="round"/>
</svg>
