<svg width="41" height="38" viewBox="0 0 41 38" fill="none" xmlns="http://www.w3.org/2000/svg">
<g clip-path="url(#clip0_114_55)">
<path fill-rule="evenodd" clip-rule="evenodd" d="M20.3333 36.6946C18.294 36.6946 17.1657 36.4757 15.3333 35.8612L11.8241 37.6159C9.6077 38.7241 7 37.1124 7 34.6344V30.8612C3.41092 27.5146 2 23.6557 2 18.3612C2 8.23601 10.2081 0.0278931 20.3333 0.0278931C30.4585 0.0278931 38.6667 8.23601 38.6667 18.3612C38.6667 28.4864 30.4585 36.6946 20.3333 36.6946ZM10.3333 29.4117L9.27325 28.4232C6.48478 25.8232 5.33333 22.9164 5.33333 18.3612C5.33333 10.077 12.0491 3.36123 20.3333 3.36123C28.6177 3.36123 35.3333 10.077 35.3333 18.3612C35.3333 26.6456 28.6177 33.3612 20.3333 33.3612C18.6905 33.3612 17.92 33.2129 16.3933 32.7009L15.0808 32.2607L10.3333 34.6344V29.4117Z" fill="#118D25"/>
<path d="M10.1905 12.6856C10.3841 11.2568 12.3742 9.31493 13.9536 9.53041L13.9511 9.52805C15.4882 9.80059 16.7049 12.269 17.391 13.3789C17.8772 14.1842 17.5615 15.0002 17.108 15.3445C16.4963 15.8045 15.5398 16.4392 15.7405 17.0765C16.0973 18.2095 20.3334 22.162 22.4169 23.2856C23.2055 23.7109 23.7774 22.5892 24.2657 22.0145C24.6205 21.5724 25.4957 21.3082 26.3568 21.7446C27.6429 22.4434 28.8544 23.2556 29.9748 24.1699C30.5343 24.6062 30.6656 25.2511 30.2779 25.9327C29.5951 27.1332 27.62 28.7162 26.1864 28.3945C23.6823 27.8327 13.5556 24.1699 10.3029 13.5582C10.1199 13.0561 10.166 12.8664 10.1905 12.6856Z" fill="#118D25"/>
</g>
<defs>
<clipPath id="clip0_114_55">
<rect width="40.6667" height="37.9442" fill="white" transform="translate(0 0.0278931)"/>
</clipPath>
</defs>
</svg>
