<svg width="40" height="50" viewBox="0 0 40 50" fill="none" xmlns="http://www.w3.org/2000/svg">
<path d="M20.0589 44.1396C14.7438 44.1396 9.42868 43.2956 4.38735 41.6075C2.47118 40.946 1.01125 39.6001 0.372527 37.8436C-0.289006 36.0871 -0.0608916 34.1482 0.988436 32.4145L3.61176 28.0575C4.15923 27.145 4.66108 25.3201 4.66108 24.248V17.6555C4.66108 9.16964 11.573 2.25777 20.0589 2.25777C28.5448 2.25777 35.4566 9.16964 35.4566 17.6555V24.248C35.4566 25.2973 35.9585 27.145 36.506 28.0803L39.1065 32.4145C40.0874 34.0569 40.2699 36.0415 39.6083 37.8436C38.9468 39.6457 37.5097 41.0144 35.7076 41.6075C30.689 43.2956 25.374 44.1396 20.0589 44.1396ZM20.0589 5.67949C13.4663 5.67949 8.08281 11.0402 8.08281 17.6555V24.248C8.08281 25.9132 7.39846 28.3769 6.55444 29.814L3.93112 34.171C3.42926 35.015 3.2924 35.9047 3.58894 36.6574C3.86268 37.433 4.54703 38.0261 5.4823 38.3455C15.0175 41.5391 25.1231 41.5391 34.6582 38.3455C35.4795 38.0717 36.1182 37.4558 36.4147 36.6346C36.7113 35.8134 36.6428 34.9238 36.1866 34.171L33.5633 29.814C32.6965 28.3312 32.0349 25.8904 32.0349 24.2252V17.6555C32.0349 11.0402 26.6742 5.67949 20.0589 5.67949Z" fill="#06F7A0"/>
<path d="M24.3012 6.29597C24.1415 6.29597 23.9818 6.27316 23.8222 6.22753C23.1606 6.04504 22.5219 5.90817 21.906 5.81693C19.967 5.566 18.0965 5.70287 16.34 6.22753C15.7013 6.43284 15.017 6.22753 14.5836 5.74849C14.1502 5.26945 14.0133 4.58511 14.2642 3.9692C15.1995 1.57399 17.4806 0 20.0811 0C22.6816 0 24.9627 1.55118 25.898 3.9692C26.1261 4.58511 26.0121 5.26945 25.5786 5.74849C25.2365 6.11348 24.7574 6.29597 24.3012 6.29597Z" fill="#06F7A0"/>
<path d="M20.0579 49.341C17.7996 49.341 15.6097 48.4286 14.0129 46.8318C12.4161 45.235 11.5037 43.0451 11.5037 40.7867H14.9254C14.9254 42.1326 15.4728 43.4557 16.4309 44.4138C17.389 45.3718 18.712 45.9193 20.0579 45.9193C22.8865 45.9193 25.1905 43.6154 25.1905 40.7867H28.6122C28.6122 45.5087 24.7799 49.341 20.0579 49.341Z" fill="#06F7A0"/>
</svg>
