<svg width="40" height="40" viewBox="0 0 40 40" fill="none" xmlns="http://www.w3.org/2000/svg">
<path d="M25.285 39.0008H14.2516C9.37371 39.0008 6.13087 37.9549 4.0884 35.9124C2.04593 33.8699 1 30.6271 1 25.7493V14.7158C1 9.83794 2.04593 6.59511 4.0884 4.55264C6.13087 2.51017 9.37371 1.46423 14.2516 1.46423H17.9294C18.131 1.46423 18.3086 1.64175 18.3086 1.84342C18.3086 2.04509 18.131 2.2226 17.9294 2.2226H14.2516C9.94232 2.2226 6.72322 2.97869 4.61884 5.08307C2.51446 7.18745 1.75837 10.4065 1.75837 14.7158V25.7493C1.75837 30.0585 2.51446 33.2776 4.61884 35.382C6.72322 37.4864 9.94232 38.2425 14.2516 38.2425H25.285C29.5943 38.2425 32.8134 37.4864 34.9177 35.382C37.0221 33.2776 37.7782 30.0585 37.7782 25.7493V22.0714C37.7782 21.8698 37.9557 21.6923 38.1574 21.6923C38.3591 21.6923 38.5366 21.8698 38.5366 22.0714V25.7493C38.5366 30.6271 37.4907 33.8699 35.4482 35.9124C33.4057 37.9549 30.1629 39.0008 25.285 39.0008Z" fill="#E2F40C" stroke="#E2F40C" stroke-width="2"/>
<path d="M10.33 26.1152L10.3306 26.1115L11.1213 20.5764L11.122 20.5716C11.2385 19.7266 11.8345 18.5462 12.4383 17.9424L11.7312 17.2353L12.4383 17.9424L26.9288 3.45168C28.6469 1.73364 30.251 1 31.7385 1C33.2259 1 34.83 1.73364 36.5481 3.45168C38.421 5.32462 39.128 7.08896 38.9812 8.73671C38.8452 10.0836 38.1211 11.4968 36.552 13.0486L36.5481 13.0525L22.0575 27.5432C21.4537 28.1471 20.2733 28.743 19.4282 28.8596L19.4234 28.8603L13.8884 29.651L13.8464 29.657L13.805 29.6665C13.6939 29.6922 13.5669 29.6961 13.3311 29.6961C12.4544 29.6961 11.6825 29.3829 11.1283 28.8445C10.4822 28.1954 10.1678 27.2213 10.33 26.1152ZM27.4669 3.98368L27.4639 3.98672L12.9733 18.4774C12.691 18.7598 12.4459 19.1559 12.2702 19.5047C12.0944 19.8536 11.9241 20.2824 11.8646 20.6691L11.8645 20.6691L11.863 20.6797L11.0722 26.2148L11.0716 26.2196C10.9726 26.9371 11.0939 27.74 11.6677 28.3138C12.2416 28.8877 13.0445 29.0089 13.7619 28.91L13.7667 28.9093L19.3017 28.1186L19.3017 28.1186L19.3124 28.117C19.6964 28.0579 20.1283 27.8891 20.481 27.7127C20.8236 27.5414 21.2285 27.2949 21.512 27.0003L35.9947 12.5175C37.251 11.2612 38.0718 9.98638 38.1958 8.64773L38.1958 8.64745C38.3468 7.01173 37.4715 5.46455 35.9993 3.97296L35.9993 3.97295L35.9947 3.96833C34.4249 2.39853 32.9067 1.64066 31.3406 1.78561C29.8309 1.92534 28.5727 2.88729 27.4669 3.98368Z" fill="#E2F40C" stroke="#E2F40C" stroke-width="2"/>
<path d="M34.1589 15.2387C34.1534 15.2379 34.15 15.2371 34.1485 15.2368L34.129 15.2303L34.1062 15.2239C29.6064 13.9578 26.0259 10.3781 24.7585 5.87885C24.7049 5.6797 24.8118 5.46787 25.0273 5.39721C25.2327 5.34661 25.4256 5.46414 25.4787 5.65726L25.4787 5.65726L25.4804 5.66324C26.6781 9.91523 30.0478 13.2849 34.2998 14.4826L34.2998 14.4826L34.3057 14.4843C34.4908 14.5352 34.6238 14.7439 34.5629 14.9651L34.5629 14.9651L34.5604 14.9744C34.5177 15.1358 34.3828 15.2417 34.2031 15.2417C34.1856 15.2417 34.1703 15.2404 34.1589 15.2387Z" fill="#E2F40C" stroke="#E2F40C" stroke-width="2"/>
</svg>
