<svg width="48" height="52" viewBox="0 0 48 52" fill="none" xmlns="http://www.w3.org/2000/svg">
<path d="M1.72621 10.6213L1.72668 10.6212L6.66061 10.1375L6.66403 10.1372C19.4402 8.84033 32.4041 9.34284 45.429 10.6212L45.4296 10.6213C45.8635 10.6636 46.1957 11.0622 46.1518 11.5121L46.1508 11.5223L46.1501 11.5325C46.119 11.9357 45.7732 12.2539 45.3574 12.2539H45.3571H45.3568H45.3565H45.3562H45.3559H45.3556H45.3554H45.3551H45.3548H45.3545H45.3542H45.3539H45.3536H45.3533H45.353H45.3527H45.3525H45.3522H45.3519H45.3516H45.3513H45.351H45.3507H45.3504H45.3501H45.3498H45.3495H45.3492H45.3489H45.3486H45.3483H45.348H45.3477H45.3474H45.3471H45.3468H45.3465H45.3462H45.3459H45.3456H45.3453H45.345H45.3447H45.3444H45.3441H45.3437H45.3434H45.3431H45.3428H45.3425H45.3422H45.3419H45.3416H45.3413H45.341H45.3406H45.3403H45.34H45.3397H45.3394H45.3391H45.3388H45.3384H45.3381H45.3378H45.3375H45.3372H45.3369H45.3365H45.3362H45.3359H45.3356H45.3353H45.3349H45.3346H45.3343H45.334H45.3336H45.3333H45.333H45.3327H45.3324H45.332H45.3317H45.3314H45.331H45.3307H45.3304H45.3301H45.3297H45.3294H45.3291H45.3287H45.3284H45.3281H45.3278H45.3274H45.3271H45.3268H45.3264H45.3261H45.3258H45.3254H45.3251H45.3247H45.3244H45.3241H45.3237H45.3234H45.3231H45.3227H45.3224H45.3221H45.3217H45.3214H45.321H45.3207H45.3204H45.32H45.3197H45.3193H45.319H45.3186H45.3183H45.318H45.3176H45.3173H45.3169H45.3166H45.3162H45.3159H45.3155H45.3152H45.3148H45.3145H45.3141H45.3138H45.3134H45.3131H45.3127H45.3124H45.312H45.3117H45.3113H45.311H45.3106H45.3103H45.3099H45.3096H45.3092H45.3089H45.3085H45.3082H45.3078H45.3074H45.3071H45.3067H45.3064H45.306H45.3057H45.3053H45.3049H45.3046H45.3042H45.3039H45.3035H45.3031H45.3028H45.3024H45.3021H45.3017H45.3013H45.301H45.3006H45.3002H45.2999H45.2995H45.2991H45.2988H45.2984H45.2981H45.2977H45.2973H45.297H45.2966H45.2962H45.2959H45.2955H45.2951H45.2947H45.2944H45.294H45.2936H45.2933H45.2929H45.2925H45.2922H45.2918H45.2914H45.291H45.2907H45.2903H45.2899H45.2895H45.2892H45.2888H45.2884H45.288H45.2877H45.2873H45.2869H45.2865H45.2862H45.2858H45.2854H45.285H45.2847H45.2843H45.2839H45.2835H45.2831H45.2828H45.2824H45.282H45.2816H45.2812H45.2809H45.2805H45.2801H45.2797H45.2793H45.2789H45.2786H45.2782H45.2778H45.2774H45.277H45.2766H45.2763H45.2759H45.2755H45.2751H45.2747H45.2743H45.2739H45.2736H45.2732H45.2728H45.2724H45.272H45.2716H45.2712H45.2708H45.2705H45.2701H45.2697H45.2693H45.2689H45.2685H45.2681H45.2677H45.2673H45.2669H45.2666H45.2662H45.2658H45.2654H45.265H45.2646H45.2642H45.2638H45.2634H45.263H45.2626H45.2622H45.2618H45.2614H45.261H45.2606H45.2603H45.2599H45.2595H45.2591H45.2587H45.2583H45.2579H45.2575H45.2571H45.2567H45.2563H45.2559H45.2555H45.2551H45.2547H45.2543H45.2539H45.2535H45.2531H45.2527H45.2523H45.2519H45.2515H45.2511H45.2507H45.2503H45.2499H45.2495H45.2491H45.2487H45.2483H45.2479H45.2475H45.2471H45.2466H45.2462H45.2458H45.2454H45.245H45.2446H45.2442H45.2438H45.2434H45.243H45.2426H45.2422H45.2418H45.2414H45.241H45.2406H45.2402H45.2397H45.2393H45.2389H45.2385H45.2381H45.2377H45.2373H45.2369H45.2365H45.2361H45.2357H45.2353H45.2348H45.2344H45.234H45.2336H45.2332H45.2328H45.2324H45.232H45.2316H45.2312H45.2307H45.2303H45.2299H45.2295H45.2291H45.2287H45.2283H45.2279H45.2274H45.227H45.2266H45.2262H45.2258H45.2254H45.225H45.2245H45.2241H45.2237H45.2233H45.2229H45.2225H45.2221H45.2216H45.2212H45.2208H45.2204H45.22H45.2196H45.2192H45.2187H45.2183H45.2179H45.2175H45.2171H45.2167H45.2162H45.2158H45.2154H45.215H45.2146H45.2142H45.2138C32.3985 10.972 19.5733 10.486 6.85083 11.7751C6.85028 11.7751 6.84974 11.7752 6.84919 11.7752L1.92128 12.2584C1.92091 12.2584 1.92054 12.2584 1.92018 12.2585C1.44406 12.3033 1.04749 11.9696 1.00415 11.5144C0.959455 11.0451 1.28573 10.6642 1.72621 10.6213Z" fill="#292D32" stroke="#F20808" stroke-width="2"/>
<path d="M15.009 9.80635L14.9971 9.80398L14.9852 9.8019C14.5495 9.72565 14.2506 9.29055 14.3225 8.87932L14.3226 8.87932L14.3237 8.87256L14.8558 5.7042L14.856 5.70298C15.0563 4.50137 15.2615 3.38566 15.9559 2.52773C16.5947 1.73859 17.8035 1 20.4239 1H26.7606C29.3826 1 30.5987 1.76223 31.2417 2.56985C31.9403 3.44726 32.1405 4.5734 32.328 5.72368L32.328 5.72369L32.329 5.72962L32.8611 8.87379L32.8613 8.87523C32.9388 9.32911 32.6224 9.73813 32.2234 9.79799L32.2134 9.79949L32.2034 9.80119C31.7496 9.87868 31.3405 9.56229 31.2807 9.16325L31.2793 9.15397L31.2777 9.14473L30.7463 6.00455L30.7417 5.97576C30.6622 5.48187 30.5861 5.00872 30.4748 4.61484C30.3578 4.20042 30.1724 3.75771 29.7993 3.39941C29.4207 3.03582 28.9547 2.85963 28.4718 2.76708C28.0014 2.67691 27.4373 2.65208 26.7848 2.65208H20.4481C19.8013 2.65208 19.2423 2.67211 18.7791 2.75381C18.3046 2.83749 17.8357 3.00121 17.452 3.36037C17.073 3.7151 16.887 4.15882 16.7692 4.57102C16.6592 4.9558 16.5806 5.42256 16.4975 5.91583C16.4943 5.93485 16.4911 5.95392 16.4879 5.97302L15.9323 9.11318L15.9311 9.12025L15.9299 9.12733C15.8652 9.52671 15.519 9.81111 15.1273 9.81111C15.0328 9.81111 15.0236 9.80927 15.0093 9.80641L15.009 9.80635Z" fill="#292D32" stroke="#F20808" stroke-width="2"/>
<path d="M6.20845 19.1394L6.20849 19.1394L6.20786 19.1308C6.17711 18.7105 6.51268 18.3072 6.96407 18.2673C7.43884 18.2511 7.80705 18.5946 7.84082 19.0315L9.41258 43.3817L9.41255 43.3817L9.41311 43.3894L9.41685 43.4411C9.48047 44.3206 9.54007 45.1446 9.67674 45.8486C9.81816 46.577 10.0602 47.286 10.5643 47.8741C11.5803 49.0594 13.3206 49.3721 15.8281 49.3721H31.3555C33.8732 49.3721 35.621 49.0601 36.6376 47.8741C37.1429 47.2846 37.3832 46.5738 37.5214 45.8441C37.6558 45.1349 37.7104 44.3045 37.7687 43.4185L37.771 43.3829L37.7711 43.3817L39.3426 19.0349C39.3427 19.0337 39.3428 19.0326 39.3429 19.0314C39.3763 18.6016 39.7613 18.2513 40.2193 18.2672C40.6778 18.3071 41.007 18.6939 40.9757 19.1325L40.9752 19.1394L39.4036 43.4888C39.4035 43.4898 39.4034 43.4908 39.4033 43.4918C39.2662 45.4358 39.1106 47.2435 38.1308 48.6123C37.2164 49.8896 35.3983 51 31.3555 51H15.8281C11.7854 51 9.96732 49.8896 9.05294 48.6123C8.07306 47.2435 7.91745 45.4357 7.78034 43.4917C7.78027 43.4907 7.7802 43.4897 7.78013 43.4888L6.20845 19.1394Z" fill="#292D32" stroke="#F20808" stroke-width="2"/>
<path d="M27.6059 37.6975H19.552C19.1126 37.6975 18.738 37.3228 18.738 36.8835C18.738 36.4442 19.1126 36.0696 19.552 36.0696H27.6059C28.0453 36.0696 28.4199 36.4442 28.4199 36.8835C28.4199 37.3229 28.0453 37.6975 27.6059 37.6975Z" fill="#292D32" stroke="#F20808" stroke-width="2"/>
<path d="M29.6371 28.0232H17.5442C17.1048 28.0232 16.7302 27.6485 16.7302 27.2092C16.7302 26.7699 17.1048 26.3953 17.5442 26.3953H29.6371C30.0765 26.3953 30.4511 26.7699 30.4511 27.2092C30.4511 27.6485 30.0765 28.0232 29.6371 28.0232Z" fill="#292D32" stroke="#F20808" stroke-width="2"/>
</svg>
